G04 ================== begin FILE IDENTIFICATION RECORD ==================*
G04 Layout Name:  C:/CADENCE/SPB_17.2/NITA/allegro/PR1.brd*
G04 Film Name:    BOTTOM*
G04 File Format:  Gerber RS274X*
G04 File Origin:  Cadence Allegro 17.2-S025*
G04 Origin Date:  Sun Dec 14 16:07:14 2025*
G04 *
G04 Layer:  ETCH/BOTTOM*
G04 Layer:  PIN/BOTTOM*
G04 Layer:  VIA CLASS/BOTTOM*
G04 *
G04 Offset:    (0.00 0.00)*
G04 Mirror:    No*
G04 Mode:      Positive*
G04 Rotation:  0*
G04 FullContactRelief:  No*
G04 UndefLineWidth:     4.00*
G04 ================== end FILE IDENTIFICATION RECORD ====================*
%FSLAX25Y25*MOIN*%
%IR0*IPPOS*OFA0.00000B0.00000*MIA0B0*SFA1.00000B1.00000*%
%ADD10C,.0236*%
%ADD11C,.016*%
%ADD12C,.018*%
G75*
%LPD*%
G75*
G54D10*
X28000Y30800D03*
X43400D03*
X40600Y50400D03*
X46200Y65800D03*
X40600Y123200D03*
X19600Y95200D03*
X30800Y99400D03*
X64400Y47600D03*
X61600Y68600D03*
X50400Y88200D03*
X68600Y99400D03*
X72800Y106400D03*
X78400Y65800D03*
X86800Y110600D03*
X117600Y46200D03*
X131600Y74200D03*
X106400Y103600D03*
X110600Y126000D03*
X145600Y49000D03*
X142800Y71400D03*
X147500Y102200D03*
G54D11*
G01X28000Y30800D02*
X43400D01*
G01X40600Y50400D02*
X61600D01*
X64400Y47600D01*
G01X30800Y99400D02*
X39200D01*
X50400Y88200D01*
G01X68600Y99400D02*
Y75600D01*
X78400Y65800D01*
G01X46200D02*
X58800D01*
X61600Y68600D01*
G01X72800Y106400D02*
X82600D01*
X86800Y110600D01*
G01X131600Y74200D02*
Y60200D01*
X117600Y46200D01*
G54D12*
G01X40600Y123200D02*
X107800D01*
X110600Y126000D01*
G01X40600Y123200D02*
X19600Y102200D01*
Y95200D01*
G01X145600Y49000D02*
X137200Y57400D01*
Y73522D01*
X129522Y81200D01*
X128800D01*
X106400Y103600D01*
G01X110600Y126000D02*
Y107800D01*
X106400Y103600D01*
G01X147500Y102200D02*
Y76100D01*
X142800Y71400D01*
M02*
