M48
INCH,TZ
T01C.0157
;LEADER: 12 
;HEADER: 
;CODE  : ASCII 
;FILE  : DRILL-1-2.drl for  ... layers TOP and BOTTOM
;DESIGN: PR1.brd
;T01 Holesize 1. = 15.700000 Tolerance = +0.000000/-0.000000 PLATED MILS Quantity = 23
%
G90
T01
X86800Y110600
X72800Y106400
X43400Y30800
X28000Y30800
X50400Y88200
X30800Y99400
X142800Y71400
X147500Y102200
X61600Y68600
X46200Y65800
X19600Y95200
X106400Y103600
X110600Y126000
X145600Y49000
X40600Y123200
X110600Y126000
X40600Y123200
X78400Y65800
X68600Y99400
X117600Y46200
X131600Y74200
X64400Y47600
X40600Y50400
M30
