G04 ================== begin FILE IDENTIFICATION RECORD ==================*
G04 Layout Name:  C:/CADENCE/SPB_17.2/NITA/allegro/PR1.brd*
G04 Film Name:    FAB*
G04 File Format:  Gerber RS274X*
G04 File Origin:  Cadence Allegro 17.2-S025*
G04 Origin Date:  Sun Dec 14 16:07:14 2025*
G04 *
G04 Layer:  MANUFACTURING/NCDRILL_LEGEND*
G04 Layer:  MANUFACTURING/NCDRILL_FIGURE*
G04 Layer:  MANUFACTURING/XSECTION_CHART*
G04 Layer:  MANUFACTURING/NCLEGEND-1-2*
G04 Layer:  BOARD GEOMETRY/DESIGN_OUTLINE*
G04 *
G04 Offset:    (0.00 0.00)*
G04 Mirror:    No*
G04 Mode:      Positive*
G04 Rotation:  0*
G04 FullContactRelief:  No*
G04 UndefLineWidth:     4.00*
G04 ================== end FILE IDENTIFICATION RECORD ====================*
%FSLAX25Y25*MOIN*%
%IR0*IPPOS*OFA0.00000B0.00000*MIA0B0*SFA1.00000B1.00000*%
%AMMACRO10*
1,1,.004,.025,0.0*
20,1,.004,.025,0.0,.02462,-.004341,0.0*
1,1,.004,.02462,-.004341*
20,1,.004,.02462,-.004341,.023492,-.008551,0.0*
1,1,.004,.023492,-.008551*
20,1,.004,.023492,-.008551,.021651,-.0125,0.0*
1,1,.004,.021651,-.0125*
20,1,.004,.021651,-.0125,.019151,-.01607,0.0*
1,1,.004,.019151,-.01607*
20,1,.004,.019151,-.01607,.01607,-.019151,0.0*
1,1,.004,.01607,-.019151*
20,1,.004,.01607,-.019151,.0125,-.021651,0.0*
1,1,.004,.0125,-.021651*
20,1,.004,.0125,-.021651,.008551,-.023492,0.0*
1,1,.004,.008551,-.023492*
20,1,.004,.008551,-.023492,.004341,-.02462,0.0*
1,1,.004,.004341,-.02462*
20,1,.004,.004341,-.02462,0.0,-.025,0.0*
1,1,.004,0.0,-.025*
20,1,.004,0.0,-.025,-.004341,-.02462,0.0*
1,1,.004,-.004341,-.02462*
20,1,.004,-.004341,-.02462,-.008551,-.023492,0.0*
1,1,.004,-.008551,-.023492*
20,1,.004,-.008551,-.023492,-.0125,-.021651,0.0*
1,1,.004,-.0125,-.021651*
20,1,.004,-.0125,-.021651,-.01607,-.019151,0.0*
1,1,.004,-.01607,-.019151*
20,1,.004,-.01607,-.019151,-.019151,-.01607,0.0*
1,1,.004,-.019151,-.01607*
20,1,.004,-.019151,-.01607,-.021651,-.0125,0.0*
1,1,.004,-.021651,-.0125*
20,1,.004,-.021651,-.0125,-.023492,-.008551,0.0*
1,1,.004,-.023492,-.008551*
20,1,.004,-.023492,-.008551,-.02462,-.004341,0.0*
1,1,.004,-.02462,-.004341*
20,1,.004,-.02462,-.004341,-.025,0.0,0.0*
1,1,.004,-.025,0.0*
20,1,.004,-.025,0.0,-.02462,.004341,0.0*
1,1,.004,-.02462,.004341*
20,1,.004,-.02462,.004341,-.023492,.008551,0.0*
1,1,.004,-.023492,.008551*
20,1,.004,-.023492,.008551,-.021651,.0125,0.0*
1,1,.004,-.021651,.0125*
20,1,.004,-.021651,.0125,-.019151,.01607,0.0*
1,1,.004,-.019151,.01607*
20,1,.004,-.019151,.01607,-.01607,.019151,0.0*
1,1,.004,-.01607,.019151*
20,1,.004,-.01607,.019151,-.0125,.021651,0.0*
1,1,.004,-.0125,.021651*
20,1,.004,-.0125,.021651,-.008551,.023492,0.0*
1,1,.004,-.008551,.023492*
20,1,.004,-.008551,.023492,-.004341,.02462,0.0*
1,1,.004,-.004341,.02462*
20,1,.004,-.004341,.02462,0.0,.025,0.0*
1,1,.004,0.0,.025*
20,1,.004,0.0,.025,.004341,.02462,0.0*
1,1,.004,.004341,.02462*
20,1,.004,.004341,.02462,.008551,.023492,0.0*
1,1,.004,.008551,.023492*
20,1,.004,.008551,.023492,.0125,.021651,0.0*
1,1,.004,.0125,.021651*
20,1,.004,.0125,.021651,.01607,.019151,0.0*
1,1,.004,.01607,.019151*
20,1,.004,.01607,.019151,.019151,.01607,0.0*
1,1,.004,.019151,.01607*
20,1,.004,.019151,.01607,.021651,.0125,0.0*
1,1,.004,.021651,.0125*
20,1,.004,.021651,.0125,.023492,.008551,0.0*
1,1,.004,.023492,.008551*
20,1,.004,.023492,.008551,.02462,.004341,0.0*
1,1,.004,.02462,.004341*
20,1,.004,.02462,.004341,.025,0.0,0.0*
1,1,.004,.025,0.0*
1,1,.004,.0125,0.0*
20,1,.004,.0125,0.0,-.0125,0.0,0.0*
1,1,.004,-.0125,0.0*
1,1,.004,0.0,.0125*
20,1,.004,0.0,.0125,0.0,-.0125,0.0*
1,1,.004,0.0,-.0125*
%
%ADD10MACRO10*%
%ADD11C,.004*%
G75*
%LPD*%
G75*
G36*
G01X-89200Y211128D02*
Y208932D01*
X-86700D01*
Y13632D01*
X-89200D01*
Y11436D01*
X-74200D01*
Y13632D01*
X-76700D01*
Y208932D01*
X-74200D01*
Y211128D01*
X-89200D01*
G37*
G36*
G01X-109200Y11436D02*
Y13632D01*
X-49200D01*
Y11436D01*
X-109200D01*
G37*
G36*
G01Y208932D02*
Y211128D01*
X-49200D01*
Y208932D01*
X-109200D01*
G37*
G54D10*
X-83850Y-73750D03*
X28000Y30800D03*
X43400D03*
X40600Y50400D03*
X46200Y65800D03*
X40600Y123200D03*
X19600Y95200D03*
X30800Y99400D03*
X64400Y47600D03*
X61600Y68600D03*
X50400Y88200D03*
X68600Y99400D03*
X72800Y106400D03*
X78400Y65800D03*
X86800Y110600D03*
X117600Y46200D03*
X131600Y74200D03*
X106400Y103600D03*
X110600Y126000D03*
X145600Y49000D03*
X142800Y71400D03*
X147500Y102200D03*
G54D11*
G01X-107287Y1133D02*
Y3633D01*
X-106753D01*
X-106540Y3508D01*
X-106380Y3341D01*
X-106247Y3091D01*
X-106140Y2800D01*
X-106113Y2383D01*
X-106140Y1966D01*
X-106247Y1675D01*
X-106380Y1425D01*
X-106540Y1258D01*
X-106753Y1133D01*
X-107287D01*
G01X-103967D02*
X-105033D01*
Y3633D01*
X-103967D01*
G01X-104393Y2425D02*
X-105033D01*
G01X-102860Y1466D02*
X-102647Y1258D01*
X-102407Y1133D01*
X-102193D01*
X-101980Y1258D01*
X-101820Y1466D01*
X-101740Y1758D01*
X-101793Y2050D01*
X-101927Y2300D01*
X-102167Y2466D01*
X-102487Y2550D01*
X-102673Y2716D01*
X-102753Y3008D01*
X-102700Y3300D01*
X-102567Y3508D01*
X-102380Y3633D01*
X-102193D01*
X-102007Y3550D01*
X-101847Y3341D01*
G01X-100420Y3633D02*
X-99780D01*
G01X-100100D02*
Y1133D01*
G01X-100420D02*
X-99780D01*
G01X-97740Y2383D02*
X-97207D01*
Y1633D01*
X-97367Y1383D01*
X-97553Y1216D01*
X-97820Y1133D01*
X-98087Y1216D01*
X-98273Y1383D01*
X-98433Y1633D01*
X-98540Y1925D01*
X-98593Y2258D01*
Y2550D01*
X-98540Y2800D01*
X-98433Y3091D01*
X-98273Y3341D01*
X-98113Y3508D01*
X-97900Y3633D01*
X-97713D01*
X-97500Y3550D01*
X-97340Y3383D01*
G01X-96313Y1133D02*
Y3633D01*
X-95087Y1133D01*
Y3633D01*
G01X-90713Y3425D02*
X-90873Y3550D01*
X-91060Y3633D01*
X-91273D01*
X-91513Y3508D01*
X-91700Y3300D01*
X-91833Y3050D01*
X-91940Y2633D01*
X-91967Y2258D01*
X-91913Y1883D01*
X-91833Y1633D01*
X-91673Y1383D01*
X-91487Y1216D01*
X-91300Y1133D01*
X-91113D01*
X-90927Y1216D01*
X-90767Y1341D01*
X-90633Y1508D01*
G01X-89633Y1133D02*
Y3633D01*
X-88967D01*
X-88753Y3508D01*
X-88620Y3341D01*
X-88567Y3008D01*
X-88620Y2675D01*
X-88780Y2466D01*
X-88967Y2341D01*
X-89633D01*
G01X-88967D02*
X-88567Y1133D01*
G01X-86900D02*
X-87113Y1175D01*
X-87300Y1341D01*
X-87460Y1591D01*
X-87567Y1883D01*
X-87620Y2216D01*
Y2550D01*
X-87567Y2883D01*
X-87460Y3175D01*
X-87300Y3425D01*
X-87113Y3591D01*
X-86900Y3633D01*
X-86687Y3591D01*
X-86500Y3425D01*
X-86340Y3175D01*
X-86233Y2883D01*
X-86180Y2550D01*
Y2216D01*
X-86233Y1883D01*
X-86340Y1591D01*
X-86500Y1341D01*
X-86687Y1175D01*
X-86900Y1133D01*
G01X-85260Y1466D02*
X-85047Y1258D01*
X-84807Y1133D01*
X-84593D01*
X-84380Y1258D01*
X-84220Y1466D01*
X-84140Y1758D01*
X-84193Y2050D01*
X-84327Y2300D01*
X-84567Y2466D01*
X-84887Y2550D01*
X-85073Y2716D01*
X-85153Y3008D01*
X-85100Y3300D01*
X-84967Y3508D01*
X-84780Y3633D01*
X-84593D01*
X-84407Y3550D01*
X-84247Y3341D01*
G01X-83060Y1466D02*
X-82847Y1258D01*
X-82607Y1133D01*
X-82393D01*
X-82180Y1258D01*
X-82020Y1466D01*
X-81940Y1758D01*
X-81993Y2050D01*
X-82127Y2300D01*
X-82367Y2466D01*
X-82687Y2550D01*
X-82873Y2716D01*
X-82953Y3008D01*
X-82900Y3300D01*
X-82767Y3508D01*
X-82580Y3633D01*
X-82393D01*
X-82207Y3550D01*
X-82047Y3341D01*
G01X-78660Y1466D02*
X-78447Y1258D01*
X-78207Y1133D01*
X-77993D01*
X-77780Y1258D01*
X-77620Y1466D01*
X-77540Y1758D01*
X-77593Y2050D01*
X-77727Y2300D01*
X-77967Y2466D01*
X-78287Y2550D01*
X-78473Y2716D01*
X-78553Y3008D01*
X-78500Y3300D01*
X-78367Y3508D01*
X-78180Y3633D01*
X-77993D01*
X-77807Y3550D01*
X-77647Y3341D01*
G01X-75367Y1133D02*
X-76433D01*
Y3633D01*
X-75367D01*
G01X-75793Y2425D02*
X-76433D01*
G01X-73113Y3425D02*
X-73273Y3550D01*
X-73460Y3633D01*
X-73673D01*
X-73913Y3508D01*
X-74100Y3300D01*
X-74233Y3050D01*
X-74340Y2633D01*
X-74367Y2258D01*
X-74313Y1883D01*
X-74233Y1633D01*
X-74073Y1383D01*
X-73887Y1216D01*
X-73700Y1133D01*
X-73513D01*
X-73327Y1216D01*
X-73167Y1341D01*
X-73033Y1508D01*
G01X-71500Y3633D02*
Y1133D01*
G01X-72113Y3633D02*
X-70887D01*
G01X-69620D02*
X-68980D01*
G01X-69300D02*
Y1133D01*
G01X-69620D02*
X-68980D01*
G01X-67100D02*
X-67313Y1175D01*
X-67500Y1341D01*
X-67660Y1591D01*
X-67767Y1883D01*
X-67820Y2216D01*
Y2550D01*
X-67767Y2883D01*
X-67660Y3175D01*
X-67500Y3425D01*
X-67313Y3591D01*
X-67100Y3633D01*
X-66887Y3591D01*
X-66700Y3425D01*
X-66540Y3175D01*
X-66433Y2883D01*
X-66380Y2550D01*
Y2216D01*
X-66433Y1883D01*
X-66540Y1591D01*
X-66700Y1341D01*
X-66887Y1175D01*
X-67100Y1133D01*
G01X-65513D02*
Y3633D01*
X-64287Y1133D01*
Y3633D01*
G01X-59913Y3425D02*
X-60073Y3550D01*
X-60260Y3633D01*
X-60473D01*
X-60713Y3508D01*
X-60900Y3300D01*
X-61033Y3050D01*
X-61140Y2633D01*
X-61167Y2258D01*
X-61113Y1883D01*
X-61033Y1633D01*
X-60873Y1383D01*
X-60687Y1216D01*
X-60500Y1133D01*
X-60313D01*
X-60127Y1216D01*
X-59967Y1341D01*
X-59833Y1508D01*
G01X-58860Y1133D02*
Y3633D01*
G01X-57740D02*
Y1133D01*
G01Y2383D02*
X-58860D01*
G01X-56767Y1133D02*
X-56100Y3633D01*
X-55433Y1133D01*
G01X-55673Y2008D02*
X-56527D01*
G01X-54433Y1133D02*
Y3633D01*
X-53767D01*
X-53553Y3508D01*
X-53420Y3341D01*
X-53367Y3008D01*
X-53420Y2675D01*
X-53580Y2466D01*
X-53767Y2341D01*
X-54433D01*
G01X-53767D02*
X-53367Y1133D01*
G01X-51700Y3633D02*
Y1133D01*
G01X-52313Y3633D02*
X-51087D01*
G01X-108600Y300D02*
X-107000D01*
G01X-106400D02*
X-104800D01*
G01X-104200D02*
X-102600D01*
G01X-102000D02*
X-100400D01*
G01X-99800D02*
X-98200D01*
G01X-97600D02*
X-96000D01*
G01X-95400D02*
X-93800D01*
G01X-93200D02*
X-91600D01*
G01X-91000D02*
X-89400D01*
G01X-88800D02*
X-87200D01*
G01X-86600D02*
X-85000D01*
G01X-84400D02*
X-82800D01*
G01X-82200D02*
X-80600D01*
G01X-80000D02*
X-78400D01*
G01X-77800D02*
X-76200D01*
G01X-75600D02*
X-74000D01*
G01X-73400D02*
X-71800D01*
G01X-71200D02*
X-69600D01*
G01X-69000D02*
X-67400D01*
G01X-66800D02*
X-65200D01*
G01X-64600D02*
X-63000D01*
G01X-62400D02*
X-60800D01*
G01X-60200D02*
X-58600D01*
G01X-58000D02*
X-56400D01*
G01X-55800D02*
X-54200D01*
G01X-53600D02*
X-52000D01*
G01X-51400D02*
X-49800D01*
G01X-106700Y-867D02*
Y-3367D01*
G01X-107313Y-867D02*
X-106087D01*
G01X-104500Y-3367D02*
X-104713Y-3325D01*
X-104900Y-3159D01*
X-105060Y-2909D01*
X-105167Y-2617D01*
X-105220Y-2284D01*
Y-1950D01*
X-105167Y-1617D01*
X-105060Y-1325D01*
X-104900Y-1075D01*
X-104713Y-909D01*
X-104500Y-867D01*
X-104287Y-909D01*
X-104100Y-1075D01*
X-103940Y-1325D01*
X-103833Y-1617D01*
X-103780Y-1950D01*
Y-2284D01*
X-103833Y-2617D01*
X-103940Y-2909D01*
X-104100Y-3159D01*
X-104287Y-3325D01*
X-104500Y-3367D01*
G01X-102300Y-867D02*
Y-3367D01*
G01X-102913Y-867D02*
X-101687D01*
G01X-100767Y-3367D02*
X-100100Y-867D01*
X-99433Y-3367D01*
G01X-99673Y-2492D02*
X-100527D01*
G01X-98433Y-867D02*
Y-3367D01*
X-97367D01*
G01X-93500Y-867D02*
Y-3367D01*
G01X-94113Y-867D02*
X-92887D01*
G01X-91860Y-3367D02*
Y-867D01*
G01X-90740D02*
Y-3367D01*
G01Y-2117D02*
X-91860D01*
G01X-89420Y-867D02*
X-88780D01*
G01X-89100D02*
Y-3367D01*
G01X-89420D02*
X-88780D01*
G01X-86313Y-1075D02*
X-86473Y-950D01*
X-86660Y-867D01*
X-86873D01*
X-87113Y-992D01*
X-87300Y-1200D01*
X-87433Y-1450D01*
X-87540Y-1867D01*
X-87567Y-2242D01*
X-87513Y-2617D01*
X-87433Y-2867D01*
X-87273Y-3117D01*
X-87087Y-3284D01*
X-86900Y-3367D01*
X-86713D01*
X-86527Y-3284D01*
X-86367Y-3159D01*
X-86233Y-2992D01*
G01X-85287Y-3367D02*
Y-867D01*
G01X-84273D02*
X-85287Y-2409D01*
G01X-84113Y-3367D02*
X-84833Y-1700D01*
G01X-83113Y-3367D02*
Y-867D01*
X-81887Y-3367D01*
Y-867D01*
G01X-79767Y-3367D02*
X-80833D01*
Y-867D01*
X-79767D01*
G01X-80193Y-2075D02*
X-80833D01*
G01X-78660Y-3034D02*
X-78447Y-3242D01*
X-78207Y-3367D01*
X-77993D01*
X-77780Y-3242D01*
X-77620Y-3034D01*
X-77540Y-2742D01*
X-77593Y-2450D01*
X-77727Y-2200D01*
X-77967Y-2034D01*
X-78287Y-1950D01*
X-78473Y-1784D01*
X-78553Y-1492D01*
X-78500Y-1200D01*
X-78367Y-992D01*
X-78180Y-867D01*
X-77993D01*
X-77807Y-950D01*
X-77647Y-1159D01*
G01X-76460Y-3034D02*
X-76247Y-3242D01*
X-76007Y-3367D01*
X-75793D01*
X-75580Y-3242D01*
X-75420Y-3034D01*
X-75340Y-2742D01*
X-75393Y-2450D01*
X-75527Y-2200D01*
X-75767Y-2034D01*
X-76087Y-1950D01*
X-76273Y-1784D01*
X-76353Y-1492D01*
X-76300Y-1200D01*
X-76167Y-992D01*
X-75980Y-867D01*
X-75793D01*
X-75607Y-950D01*
X-75447Y-1159D01*
G01X-72007Y-2325D02*
X-71820Y-2034D01*
X-71660Y-1867D01*
X-71447Y-1784D01*
X-71260Y-1867D01*
X-71127Y-2034D01*
X-71020Y-2284D01*
X-70993Y-2575D01*
X-71020Y-2825D01*
X-71127Y-3075D01*
X-71287Y-3284D01*
X-71473Y-3367D01*
X-71687Y-3284D01*
X-71873Y-3034D01*
X-71980Y-2659D01*
X-72007Y-2242D01*
X-71953Y-1700D01*
X-71873Y-1409D01*
X-71740Y-1117D01*
X-71553Y-909D01*
X-71367Y-867D01*
X-71180Y-950D01*
X-71047Y-1159D01*
G01X-68980Y-3367D02*
Y-867D01*
X-69967Y-2659D01*
X-68633D01*
G01X-67100Y-3450D02*
X-67153Y-3409D01*
Y-3325D01*
X-67100Y-3284D01*
X-67047Y-3325D01*
Y-3409D01*
X-67100Y-3450D01*
G01X-64580Y-3367D02*
Y-867D01*
X-65567Y-2659D01*
X-64233D01*
G01X-62700Y-3367D02*
Y-867D01*
X-63020Y-1367D01*
G01Y-3367D02*
X-62380D01*
G01X-60553D02*
X-60500Y-2825D01*
X-60420Y-2367D01*
X-60313Y-1950D01*
X-60180Y-1492D01*
X-59967Y-867D01*
X-61033D01*
G01X-56793Y-3367D02*
Y-867D01*
X-56100Y-2950D01*
X-55407Y-867D01*
Y-3367D01*
G01X-54220Y-867D02*
X-53580D01*
G01X-53900D02*
Y-3367D01*
G01X-54220D02*
X-53580D01*
G01X-52233Y-867D02*
Y-3367D01*
X-51167D01*
G01X-81700Y214428D02*
X-84200D01*
X-83700Y214108D01*
G01X-81700D02*
Y214748D01*
G01X-82533Y216281D02*
Y216975D01*
G01X-83783Y218321D02*
X-84033Y218481D01*
X-84158Y218668D01*
X-84200Y218881D01*
X-84117Y219148D01*
X-83908Y219335D01*
X-83658Y219388D01*
X-83408Y219361D01*
X-83200Y219255D01*
X-82783Y218721D01*
X-82492Y218481D01*
X-82075Y218321D01*
X-81700Y218268D01*
Y219388D01*
G01X-46733Y12799D02*
Y10299D01*
X-45667D01*
G01X-44507Y12382D02*
X-44347Y12632D01*
X-44160Y12757D01*
X-43947Y12799D01*
X-43680Y12716D01*
X-43493Y12507D01*
X-43440Y12257D01*
X-43467Y12007D01*
X-43573Y11799D01*
X-44107Y11382D01*
X-44347Y11091D01*
X-44507Y10674D01*
X-44560Y10299D01*
X-43440D01*
G01X-39387Y11632D02*
X-39280Y11757D01*
X-39200Y11966D01*
X-39147Y12257D01*
X-39200Y12507D01*
X-39307Y12674D01*
X-39493Y12799D01*
X-40213D01*
Y10299D01*
X-39333D01*
X-39147Y10466D01*
X-39040Y10716D01*
X-38987Y11007D01*
X-39040Y11299D01*
X-39200Y11549D01*
X-39387Y11632D01*
X-40213D01*
G01X-37400Y10299D02*
X-37613Y10341D01*
X-37800Y10507D01*
X-37960Y10757D01*
X-38067Y11049D01*
X-38120Y11382D01*
Y11716D01*
X-38067Y12049D01*
X-37960Y12341D01*
X-37800Y12591D01*
X-37613Y12757D01*
X-37400Y12799D01*
X-37187Y12757D01*
X-37000Y12591D01*
X-36840Y12341D01*
X-36733Y12049D01*
X-36680Y11716D01*
Y11382D01*
X-36733Y11049D01*
X-36840Y10757D01*
X-37000Y10507D01*
X-37187Y10341D01*
X-37400Y10299D01*
G01X-35200Y12799D02*
Y10299D01*
G01X-35813Y12799D02*
X-34587D01*
G01X-33000D02*
Y10299D01*
G01X-33613Y12799D02*
X-32387D01*
G01X-30800Y10299D02*
X-31013Y10341D01*
X-31200Y10507D01*
X-31360Y10757D01*
X-31467Y11049D01*
X-31520Y11382D01*
Y11716D01*
X-31467Y12049D01*
X-31360Y12341D01*
X-31200Y12591D01*
X-31013Y12757D01*
X-30800Y12799D01*
X-30587Y12757D01*
X-30400Y12591D01*
X-30240Y12341D01*
X-30133Y12049D01*
X-30080Y11716D01*
Y11382D01*
X-30133Y11049D01*
X-30240Y10757D01*
X-30400Y10507D01*
X-30587Y10341D01*
X-30800Y10299D01*
G01X-29293D02*
Y12799D01*
X-28600Y10716D01*
X-27907Y12799D01*
Y10299D01*
G01X-23613Y12591D02*
X-23773Y12716D01*
X-23960Y12799D01*
X-24173D01*
X-24413Y12674D01*
X-24600Y12466D01*
X-24733Y12216D01*
X-24840Y11799D01*
X-24867Y11424D01*
X-24813Y11049D01*
X-24733Y10799D01*
X-24573Y10549D01*
X-24387Y10382D01*
X-24200Y10299D01*
X-24013D01*
X-23827Y10382D01*
X-23667Y10507D01*
X-23533Y10674D01*
G01X-22000Y10299D02*
X-22213Y10341D01*
X-22400Y10507D01*
X-22560Y10757D01*
X-22667Y11049D01*
X-22720Y11382D01*
Y11716D01*
X-22667Y12049D01*
X-22560Y12341D01*
X-22400Y12591D01*
X-22213Y12757D01*
X-22000Y12799D01*
X-21787Y12757D01*
X-21600Y12591D01*
X-21440Y12341D01*
X-21333Y12049D01*
X-21280Y11716D01*
Y11382D01*
X-21333Y11049D01*
X-21440Y10757D01*
X-21600Y10507D01*
X-21787Y10341D01*
X-22000Y10299D01*
G01X-20413D02*
Y12799D01*
X-19187Y10299D01*
Y12799D01*
G01X-18187Y10299D02*
Y12799D01*
X-17653D01*
X-17440Y12674D01*
X-17280Y12507D01*
X-17147Y12257D01*
X-17040Y11966D01*
X-17013Y11549D01*
X-17040Y11132D01*
X-17147Y10841D01*
X-17280Y10591D01*
X-17440Y10424D01*
X-17653Y10299D01*
X-18187D01*
G01X-15987Y12799D02*
Y11007D01*
X-15880Y10632D01*
X-15667Y10382D01*
X-15400Y10299D01*
X-15133Y10382D01*
X-14920Y10632D01*
X-14813Y11007D01*
Y12799D01*
G01X-12613Y12591D02*
X-12773Y12716D01*
X-12960Y12799D01*
X-13173D01*
X-13413Y12674D01*
X-13600Y12466D01*
X-13733Y12216D01*
X-13840Y11799D01*
X-13867Y11424D01*
X-13813Y11049D01*
X-13733Y10799D01*
X-13573Y10549D01*
X-13387Y10382D01*
X-13200Y10299D01*
X-13013D01*
X-12827Y10382D01*
X-12667Y10507D01*
X-12533Y10674D01*
G01X-11000Y12799D02*
Y10299D01*
G01X-11613Y12799D02*
X-10387D01*
G01X-8800Y10299D02*
X-9013Y10341D01*
X-9200Y10507D01*
X-9360Y10757D01*
X-9467Y11049D01*
X-9520Y11382D01*
Y11716D01*
X-9467Y12049D01*
X-9360Y12341D01*
X-9200Y12591D01*
X-9013Y12757D01*
X-8800Y12799D01*
X-8587Y12757D01*
X-8400Y12591D01*
X-8240Y12341D01*
X-8133Y12049D01*
X-8080Y11716D01*
Y11382D01*
X-8133Y11049D01*
X-8240Y10757D01*
X-8400Y10507D01*
X-8587Y10341D01*
X-8800Y10299D01*
G01X-7133D02*
Y12799D01*
X-6467D01*
X-6253Y12674D01*
X-6120Y12507D01*
X-6067Y12174D01*
X-6120Y11841D01*
X-6280Y11632D01*
X-6467Y11507D01*
X-7133D01*
G01X-6467D02*
X-6067Y10299D01*
G01X-42387Y6883D02*
X-41213Y8716D01*
G01X-41800Y9049D02*
Y6549D01*
G01X-41213Y6883D02*
X-42387Y8716D01*
G01X-42600Y7799D02*
X-41000D01*
G01X-35760Y7299D02*
X-35547Y7091D01*
X-35307Y6966D01*
X-35093D01*
X-34880Y7091D01*
X-34720Y7299D01*
X-34640Y7591D01*
X-34693Y7883D01*
X-34827Y8133D01*
X-35067Y8299D01*
X-35387Y8383D01*
X-35573Y8549D01*
X-35653Y8841D01*
X-35600Y9133D01*
X-35467Y9341D01*
X-35280Y9466D01*
X-35093D01*
X-34907Y9383D01*
X-34747Y9174D01*
G01X-33587Y9466D02*
Y7674D01*
X-33480Y7299D01*
X-33267Y7049D01*
X-33000Y6966D01*
X-32733Y7049D01*
X-32520Y7299D01*
X-32413Y7674D01*
Y9466D01*
G01X-31333Y6966D02*
Y9466D01*
X-30667D01*
X-30453Y9341D01*
X-30320Y9174D01*
X-30267Y8841D01*
X-30320Y8508D01*
X-30480Y8299D01*
X-30667Y8174D01*
X-31333D01*
G01X-30667D02*
X-30267Y6966D01*
G01X-29107D02*
Y9466D01*
X-28093D01*
G01X-28467Y8258D02*
X-29107D01*
G01X-27067Y6966D02*
X-26400Y9466D01*
X-25733Y6966D01*
G01X-25973Y7841D02*
X-26827D01*
G01X-23613Y9258D02*
X-23773Y9383D01*
X-23960Y9466D01*
X-24173D01*
X-24413Y9341D01*
X-24600Y9133D01*
X-24733Y8883D01*
X-24840Y8466D01*
X-24867Y8091D01*
X-24813Y7716D01*
X-24733Y7466D01*
X-24573Y7216D01*
X-24387Y7049D01*
X-24200Y6966D01*
X-24013D01*
X-23827Y7049D01*
X-23667Y7174D01*
X-23533Y7341D01*
G01X-21467Y6966D02*
X-22533D01*
Y9466D01*
X-21467D01*
G01X-21893Y8258D02*
X-22533D01*
G01X-42387Y111199D02*
X-41213Y113032D01*
G01X-41800Y113365D02*
Y110865D01*
G01X-41213Y111199D02*
X-42387Y113032D01*
G01X-42600Y112115D02*
X-41000D01*
G01X-35787Y111282D02*
Y113782D01*
X-35253D01*
X-35040Y113657D01*
X-34880Y113490D01*
X-34747Y113240D01*
X-34640Y112949D01*
X-34613Y112532D01*
X-34640Y112115D01*
X-34747Y111824D01*
X-34880Y111574D01*
X-35040Y111407D01*
X-35253Y111282D01*
X-35787D01*
G01X-33320Y113782D02*
X-32680D01*
G01X-33000D02*
Y111282D01*
G01X-33320D02*
X-32680D01*
G01X-30267D02*
X-31333D01*
Y113782D01*
X-30267D01*
G01X-30693Y112574D02*
X-31333D01*
G01X-29133Y113782D02*
Y111282D01*
X-28067D01*
G01X-25867D02*
X-26933D01*
Y113782D01*
X-25867D01*
G01X-26293Y112574D02*
X-26933D01*
G01X-23613Y113574D02*
X-23773Y113699D01*
X-23960Y113782D01*
X-24173D01*
X-24413Y113657D01*
X-24600Y113449D01*
X-24733Y113199D01*
X-24840Y112782D01*
X-24867Y112407D01*
X-24813Y112032D01*
X-24733Y111782D01*
X-24573Y111532D01*
X-24387Y111365D01*
X-24200Y111282D01*
X-24013D01*
X-23827Y111365D01*
X-23667Y111490D01*
X-23533Y111657D01*
G01X-22000Y113782D02*
Y111282D01*
G01X-22613Y113782D02*
X-21387D01*
G01X-20333Y111282D02*
Y113782D01*
X-19667D01*
X-19453Y113657D01*
X-19320Y113490D01*
X-19267Y113157D01*
X-19320Y112824D01*
X-19480Y112615D01*
X-19667Y112490D01*
X-20333D01*
G01X-19667D02*
X-19267Y111282D01*
G01X-17920Y113782D02*
X-17280D01*
G01X-17600D02*
Y111282D01*
G01X-17920D02*
X-17280D01*
G01X-14813Y113574D02*
X-14973Y113699D01*
X-15160Y113782D01*
X-15373D01*
X-15613Y113657D01*
X-15800Y113449D01*
X-15933Y113199D01*
X-16040Y112782D01*
X-16067Y112407D01*
X-16013Y112032D01*
X-15933Y111782D01*
X-15773Y111532D01*
X-15587Y111365D01*
X-15400Y111282D01*
X-15213D01*
X-15027Y111365D01*
X-14867Y111490D01*
X-14733Y111657D01*
G01X-42387Y211878D02*
X-41213Y213711D01*
G01X-41800Y214044D02*
Y211544D01*
G01X-41213Y211878D02*
X-42387Y213711D01*
G01X-42600Y212794D02*
X-41000D01*
G01X-35760Y212294D02*
X-35547Y212086D01*
X-35307Y211961D01*
X-35093D01*
X-34880Y212086D01*
X-34720Y212294D01*
X-34640Y212586D01*
X-34693Y212878D01*
X-34827Y213128D01*
X-35067Y213294D01*
X-35387Y213378D01*
X-35573Y213544D01*
X-35653Y213836D01*
X-35600Y214128D01*
X-35467Y214336D01*
X-35280Y214461D01*
X-35093D01*
X-34907Y214378D01*
X-34747Y214169D01*
G01X-33587Y214461D02*
Y212669D01*
X-33480Y212294D01*
X-33267Y212044D01*
X-33000Y211961D01*
X-32733Y212044D01*
X-32520Y212294D01*
X-32413Y212669D01*
Y214461D01*
G01X-31333Y211961D02*
Y214461D01*
X-30667D01*
X-30453Y214336D01*
X-30320Y214169D01*
X-30267Y213836D01*
X-30320Y213503D01*
X-30480Y213294D01*
X-30667Y213169D01*
X-31333D01*
G01X-30667D02*
X-30267Y211961D01*
G01X-29107D02*
Y214461D01*
X-28093D01*
G01X-28467Y213253D02*
X-29107D01*
G01X-27067Y211961D02*
X-26400Y214461D01*
X-25733Y211961D01*
G01X-25973Y212836D02*
X-26827D01*
G01X-23613Y214253D02*
X-23773Y214378D01*
X-23960Y214461D01*
X-24173D01*
X-24413Y214336D01*
X-24600Y214128D01*
X-24733Y213878D01*
X-24840Y213461D01*
X-24867Y213086D01*
X-24813Y212711D01*
X-24733Y212461D01*
X-24573Y212211D01*
X-24387Y212044D01*
X-24200Y211961D01*
X-24013D01*
X-23827Y212044D01*
X-23667Y212169D01*
X-23533Y212336D01*
G01X-21467Y211961D02*
X-22533D01*
Y214461D01*
X-21467D01*
G01X-21893Y213253D02*
X-22533D01*
G01X-46733Y210295D02*
Y207795D01*
X-45667D01*
G01X-44000D02*
Y210295D01*
X-44320Y209795D01*
G01Y207795D02*
X-43680D01*
G01X-39600Y210295D02*
Y207795D01*
G01X-40213Y210295D02*
X-38987D01*
G01X-37400Y207795D02*
X-37613Y207837D01*
X-37800Y208003D01*
X-37960Y208253D01*
X-38067Y208545D01*
X-38120Y208878D01*
Y209212D01*
X-38067Y209545D01*
X-37960Y209837D01*
X-37800Y210087D01*
X-37613Y210253D01*
X-37400Y210295D01*
X-37187Y210253D01*
X-37000Y210087D01*
X-36840Y209837D01*
X-36733Y209545D01*
X-36680Y209212D01*
Y208878D01*
X-36733Y208545D01*
X-36840Y208253D01*
X-37000Y208003D01*
X-37187Y207837D01*
X-37400Y207795D01*
G01X-35733D02*
Y210295D01*
X-35093D01*
X-34880Y210170D01*
X-34720Y209878D01*
X-34667Y209545D01*
X-34720Y209212D01*
X-34853Y208962D01*
X-35093Y208837D01*
X-35733D01*
G01X-30213Y210087D02*
X-30373Y210212D01*
X-30560Y210295D01*
X-30773D01*
X-31013Y210170D01*
X-31200Y209962D01*
X-31333Y209712D01*
X-31440Y209295D01*
X-31467Y208920D01*
X-31413Y208545D01*
X-31333Y208295D01*
X-31173Y208045D01*
X-30987Y207878D01*
X-30800Y207795D01*
X-30613D01*
X-30427Y207878D01*
X-30267Y208003D01*
X-30133Y208170D01*
G01X-28600Y207795D02*
X-28813Y207837D01*
X-29000Y208003D01*
X-29160Y208253D01*
X-29267Y208545D01*
X-29320Y208878D01*
Y209212D01*
X-29267Y209545D01*
X-29160Y209837D01*
X-29000Y210087D01*
X-28813Y210253D01*
X-28600Y210295D01*
X-28387Y210253D01*
X-28200Y210087D01*
X-28040Y209837D01*
X-27933Y209545D01*
X-27880Y209212D01*
Y208878D01*
X-27933Y208545D01*
X-28040Y208253D01*
X-28200Y208003D01*
X-28387Y207837D01*
X-28600Y207795D01*
G01X-27013D02*
Y210295D01*
X-25787Y207795D01*
Y210295D01*
G01X-24787Y207795D02*
Y210295D01*
X-24253D01*
X-24040Y210170D01*
X-23880Y210003D01*
X-23747Y209753D01*
X-23640Y209462D01*
X-23613Y209045D01*
X-23640Y208628D01*
X-23747Y208337D01*
X-23880Y208087D01*
X-24040Y207920D01*
X-24253Y207795D01*
X-24787D01*
G01X-22587Y210295D02*
Y208503D01*
X-22480Y208128D01*
X-22267Y207878D01*
X-22000Y207795D01*
X-21733Y207878D01*
X-21520Y208128D01*
X-21413Y208503D01*
Y210295D01*
G01X-19213Y210087D02*
X-19373Y210212D01*
X-19560Y210295D01*
X-19773D01*
X-20013Y210170D01*
X-20200Y209962D01*
X-20333Y209712D01*
X-20440Y209295D01*
X-20467Y208920D01*
X-20413Y208545D01*
X-20333Y208295D01*
X-20173Y208045D01*
X-19987Y207878D01*
X-19800Y207795D01*
X-19613D01*
X-19427Y207878D01*
X-19267Y208003D01*
X-19133Y208170D01*
G01X-17600Y210295D02*
Y207795D01*
G01X-18213Y210295D02*
X-16987D01*
G01X-15400Y207795D02*
X-15613Y207837D01*
X-15800Y208003D01*
X-15960Y208253D01*
X-16067Y208545D01*
X-16120Y208878D01*
Y209212D01*
X-16067Y209545D01*
X-15960Y209837D01*
X-15800Y210087D01*
X-15613Y210253D01*
X-15400Y210295D01*
X-15187Y210253D01*
X-15000Y210087D01*
X-14840Y209837D01*
X-14733Y209545D01*
X-14680Y209212D01*
Y208878D01*
X-14733Y208545D01*
X-14840Y208253D01*
X-15000Y208003D01*
X-15187Y207837D01*
X-15400Y207795D01*
G01X-13733D02*
Y210295D01*
X-13067D01*
X-12853Y210170D01*
X-12720Y210003D01*
X-12667Y209670D01*
X-12720Y209337D01*
X-12880Y209128D01*
X-13067Y209003D01*
X-13733D01*
G01X-13067D02*
X-12667Y207795D01*
G01X-117795Y-68750D02*
Y-66250D01*
X-111905D01*
G01X-114075Y-67458D02*
X-117795D01*
G01X-104310Y-66250D02*
X-100590D01*
G01X-102450D02*
Y-68750D01*
G01X-104310D02*
X-100590D01*
G01X-89120Y-67500D02*
X-86020D01*
Y-68250D01*
X-86950Y-68500D01*
X-88035Y-68667D01*
X-89585Y-68750D01*
X-91135Y-68667D01*
X-92220Y-68500D01*
X-93150Y-68250D01*
X-93770Y-67958D01*
X-94080Y-67625D01*
Y-67333D01*
X-93770Y-67083D01*
X-93150Y-66792D01*
X-92220Y-66542D01*
X-91290Y-66375D01*
X-90050Y-66250D01*
X-88965D01*
X-87725Y-66333D01*
X-86795Y-66500D01*
G01X-81060Y-66250D02*
Y-68042D01*
X-80440Y-68417D01*
X-79200Y-68667D01*
X-77650Y-68750D01*
X-76100Y-68667D01*
X-74860Y-68417D01*
X-74240Y-68042D01*
Y-66250D01*
G01X-68350Y-68750D02*
Y-66250D01*
X-64475D01*
X-63235Y-66375D01*
X-62460Y-66542D01*
X-62150Y-66875D01*
X-62460Y-67208D01*
X-63390Y-67417D01*
X-64475Y-67542D01*
X-68350D01*
G01X-64475D02*
X-62150Y-68750D01*
G01X-49750D02*
X-55950D01*
Y-66250D01*
X-49750D01*
G01X-52230Y-67458D02*
X-55950D01*
G01X-128800Y-77500D02*
Y-35000D01*
X367200D01*
Y-77500D01*
X-128800D01*
G01Y-60000D02*
X367200D01*
G01X-128800Y-65000D02*
X367200D01*
G01X-128800Y-70000D02*
X367200D01*
G01X-109200Y13632D02*
Y208932D01*
X-49200D01*
Y13632D01*
X-109200D01*
G01X-15495Y-68750D02*
Y-66250D01*
X-9605D01*
G01X-11775Y-67458D02*
X-15495D01*
G01X-2010Y-66250D02*
X1710D01*
G01X-150D02*
Y-68750D01*
G01X-2010D02*
X1710D01*
G01X8685D02*
Y-66250D01*
X15815Y-68750D01*
Y-66250D01*
G01X22790D02*
X26510D01*
G01X24650D02*
Y-68750D01*
G01X22790D02*
X26510D01*
G01X33795Y-68417D02*
X35035Y-68625D01*
X36430Y-68750D01*
X37670D01*
X38910Y-68625D01*
X39840Y-68417D01*
X40305Y-68125D01*
X39995Y-67833D01*
X39220Y-67583D01*
X37825Y-67417D01*
X35965Y-67333D01*
X34880Y-67167D01*
X34415Y-66875D01*
X34725Y-66583D01*
X35500Y-66375D01*
X36585Y-66250D01*
X37670D01*
X38755Y-66333D01*
X39685Y-66542D01*
G01X46195Y-68750D02*
Y-66250D01*
G01X52705D02*
Y-68750D01*
G01Y-67500D02*
X46195D01*
G01X64950Y-68750D02*
X58750D01*
Y-66250D01*
X64950D01*
G01X62470Y-67458D02*
X58750D01*
G01X70840Y-68750D02*
Y-66250D01*
X73940D01*
X75180Y-66375D01*
X76110Y-66542D01*
X76885Y-66792D01*
X77505Y-67083D01*
X77660Y-67500D01*
X77505Y-67917D01*
X76885Y-68208D01*
X76110Y-68458D01*
X75180Y-68625D01*
X73940Y-68750D01*
X70840D01*
G01X82000Y-69583D02*
X91300D01*
G01X95795Y-68417D02*
X97035Y-68625D01*
X98430Y-68750D01*
X99670D01*
X100910Y-68625D01*
X101840Y-68417D01*
X102305Y-68125D01*
X101995Y-67833D01*
X101220Y-67583D01*
X99825Y-67417D01*
X97965Y-67333D01*
X96880Y-67167D01*
X96415Y-66875D01*
X96725Y-66583D01*
X97500Y-66375D01*
X98585Y-66250D01*
X99670D01*
X100755Y-66333D01*
X101685Y-66542D01*
G01X109590Y-66250D02*
X113310D01*
G01X111450D02*
Y-68750D01*
G01X109590D02*
X113310D01*
G01X120905Y-66250D02*
X126795D01*
X120905Y-68750D01*
X126795D01*
G01X139350D02*
X133150D01*
Y-66250D01*
X139350D01*
G01X136870Y-67458D02*
X133150D01*
G01X-38900Y-65000D02*
Y-77500D01*
G01X-39210Y-38750D02*
Y-36250D01*
X-36110D01*
X-34870Y-36375D01*
X-33940Y-36542D01*
X-33165Y-36792D01*
X-32545Y-37083D01*
X-32390Y-37500D01*
X-32545Y-37917D01*
X-33165Y-38208D01*
X-33940Y-38458D01*
X-34870Y-38625D01*
X-36110Y-38750D01*
X-39210D01*
G01X-26500D02*
Y-36250D01*
X-22625D01*
X-21385Y-36375D01*
X-20610Y-36542D01*
X-20300Y-36875D01*
X-20610Y-37208D01*
X-21540Y-37417D01*
X-22625Y-37542D01*
X-26500D01*
G01X-22625D02*
X-20300Y-38750D01*
G01X-12860Y-36250D02*
X-9140D01*
G01X-11000D02*
Y-38750D01*
G01X-12860D02*
X-9140D01*
G01X-1700Y-36250D02*
Y-38750D01*
X4500D01*
G01X10700Y-36250D02*
Y-38750D01*
X16900D01*
G01X42010Y-36458D02*
X41080Y-36333D01*
X39995Y-36250D01*
X38755D01*
X37360Y-36375D01*
X36275Y-36583D01*
X35500Y-36833D01*
X34880Y-37250D01*
X34725Y-37625D01*
X35035Y-38000D01*
X35500Y-38250D01*
X36430Y-38500D01*
X37515Y-38667D01*
X38600Y-38750D01*
X39685D01*
X40770Y-38667D01*
X41700Y-38542D01*
X42475Y-38375D01*
G01X47745Y-38750D02*
Y-36250D01*
G01X54255D02*
Y-38750D01*
G01Y-37500D02*
X47745D01*
G01X59525Y-38750D02*
X63400Y-36250D01*
X67275Y-38750D01*
G01X65880Y-37875D02*
X60920D01*
G01X72700Y-38750D02*
Y-36250D01*
X76575D01*
X77815Y-36375D01*
X78590Y-36542D01*
X78900Y-36875D01*
X78590Y-37208D01*
X77660Y-37417D01*
X76575Y-37542D01*
X72700D01*
G01X76575D02*
X78900Y-38750D01*
G01X88200Y-36250D02*
Y-38750D01*
G01X84635Y-36250D02*
X91765D01*
G01X100600Y-38833D02*
X100290Y-38792D01*
Y-38708D01*
X100600Y-38667D01*
X100910Y-38708D01*
Y-38792D01*
X100600Y-38833D01*
G01Y-37708D02*
X100290Y-37667D01*
Y-37583D01*
X100600Y-37542D01*
X100910Y-37583D01*
Y-37667D01*
X100600Y-37708D01*
G01X125400Y-36250D02*
Y-38750D01*
G01X121835Y-36250D02*
X128965D01*
G01X137800Y-38750D02*
X136560Y-38708D01*
X135475Y-38542D01*
X134545Y-38292D01*
X133925Y-38000D01*
X133615Y-37667D01*
Y-37333D01*
X133925Y-37000D01*
X134545Y-36708D01*
X135475Y-36458D01*
X136560Y-36292D01*
X137800Y-36250D01*
X139040Y-36292D01*
X140125Y-36458D01*
X141055Y-36708D01*
X141675Y-37000D01*
X141985Y-37333D01*
Y-37667D01*
X141675Y-38000D01*
X141055Y-38292D01*
X140125Y-38542D01*
X139040Y-38708D01*
X137800Y-38750D01*
G01X147100D02*
Y-36250D01*
X150820D01*
X152060Y-36375D01*
X152990Y-36667D01*
X153300Y-37000D01*
X152990Y-37333D01*
X152215Y-37583D01*
X150820Y-37708D01*
X147100D01*
G01X175000Y-36250D02*
Y-38750D01*
G01X172830Y-37083D02*
X177170D01*
G01X187400Y-38750D02*
X186470Y-38708D01*
X185540Y-38542D01*
X184920Y-38250D01*
X184610Y-37917D01*
X184920Y-37583D01*
X185540Y-37292D01*
X186470Y-37125D01*
X187400Y-37083D01*
X188330Y-37125D01*
X189260Y-37292D01*
X189880Y-37583D01*
X190035Y-37917D01*
X189880Y-38250D01*
X189260Y-38542D01*
X188330Y-38708D01*
X187400Y-38750D01*
G01X213440Y-37417D02*
X214060Y-37292D01*
X214525Y-37083D01*
X214835Y-36792D01*
X214525Y-36542D01*
X213905Y-36375D01*
X212820Y-36250D01*
X208635D01*
Y-38750D01*
X213750D01*
X214835Y-38583D01*
X215455Y-38333D01*
X215765Y-38042D01*
X215455Y-37750D01*
X214525Y-37500D01*
X213440Y-37417D01*
X208635D01*
G01X224600Y-38750D02*
X223360Y-38708D01*
X222275Y-38542D01*
X221345Y-38292D01*
X220725Y-38000D01*
X220415Y-37667D01*
Y-37333D01*
X220725Y-37000D01*
X221345Y-36708D01*
X222275Y-36458D01*
X223360Y-36292D01*
X224600Y-36250D01*
X225840Y-36292D01*
X226925Y-36458D01*
X227855Y-36708D01*
X228475Y-37000D01*
X228785Y-37333D01*
Y-37667D01*
X228475Y-38000D01*
X227855Y-38292D01*
X226925Y-38542D01*
X225840Y-38708D01*
X224600Y-38750D01*
G01X237000Y-36250D02*
Y-38750D01*
G01X233435Y-36250D02*
X240565D01*
G01X249400D02*
Y-38750D01*
G01X245835Y-36250D02*
X252965D01*
G01X261800Y-38750D02*
X260560Y-38708D01*
X259475Y-38542D01*
X258545Y-38292D01*
X257925Y-38000D01*
X257615Y-37667D01*
Y-37333D01*
X257925Y-37000D01*
X258545Y-36708D01*
X259475Y-36458D01*
X260560Y-36292D01*
X261800Y-36250D01*
X263040Y-36292D01*
X264125Y-36458D01*
X265055Y-36708D01*
X265675Y-37000D01*
X265985Y-37333D01*
Y-37667D01*
X265675Y-38000D01*
X265055Y-38292D01*
X264125Y-38542D01*
X263040Y-38708D01*
X261800Y-38750D01*
G01X270170D02*
Y-36250D01*
X274200Y-38333D01*
X278230Y-36250D01*
Y-38750D01*
G01X-8675Y-63750D02*
X-4800Y-61250D01*
X-925Y-63750D01*
G01X-2320Y-62875D02*
X-7280D01*
G01X4500Y-61250D02*
Y-63750D01*
X10700D01*
G01X16900Y-61250D02*
Y-63750D01*
X23100D01*
G01X41390Y-61250D02*
Y-63042D01*
X42010Y-63417D01*
X43250Y-63667D01*
X44800Y-63750D01*
X46350Y-63667D01*
X47590Y-63417D01*
X48210Y-63042D01*
Y-61250D01*
G01X53635Y-63750D02*
Y-61250D01*
X60765Y-63750D01*
Y-61250D01*
G01X67740D02*
X71460D01*
G01X69600D02*
Y-63750D01*
G01X67740D02*
X71460D01*
G01X82000Y-61250D02*
Y-63750D01*
G01X78435Y-61250D02*
X85565D01*
G01X91145Y-63417D02*
X92385Y-63625D01*
X93780Y-63750D01*
X95020D01*
X96260Y-63625D01*
X97190Y-63417D01*
X97655Y-63125D01*
X97345Y-62833D01*
X96570Y-62583D01*
X95175Y-62417D01*
X93315Y-62333D01*
X92230Y-62167D01*
X91765Y-61875D01*
X92075Y-61583D01*
X92850Y-61375D01*
X93935Y-61250D01*
X95020D01*
X96105Y-61333D01*
X97035Y-61542D01*
G01X115325Y-63750D02*
X119200Y-61250D01*
X123075Y-63750D01*
G01X121680Y-62875D02*
X116720D01*
G01X128500Y-63750D02*
Y-61250D01*
X132375D01*
X133615Y-61375D01*
X134390Y-61542D01*
X134700Y-61875D01*
X134390Y-62208D01*
X133460Y-62417D01*
X132375Y-62542D01*
X128500D01*
G01X132375D02*
X134700Y-63750D01*
G01X147100D02*
X140900D01*
Y-61250D01*
X147100D01*
G01X144620Y-62458D02*
X140900D01*
G01X166940Y-61250D02*
X170660D01*
G01X168800D02*
Y-63750D01*
G01X166940D02*
X170660D01*
G01X177635D02*
Y-61250D01*
X184765Y-63750D01*
Y-61250D01*
G01X201970Y-63750D02*
Y-61250D01*
X206000Y-63333D01*
X210030Y-61250D01*
Y-63750D01*
G01X216540Y-61250D02*
X220260D01*
G01X218400D02*
Y-63750D01*
G01X216540D02*
X220260D01*
G01X227700Y-61250D02*
Y-63750D01*
X233900D01*
G01X239945Y-63417D02*
X241185Y-63625D01*
X242580Y-63750D01*
X243820D01*
X245060Y-63625D01*
X245990Y-63417D01*
X246455Y-63125D01*
X246145Y-62833D01*
X245370Y-62583D01*
X243975Y-62417D01*
X242115Y-62333D01*
X241030Y-62167D01*
X240565Y-61875D01*
X240875Y-61583D01*
X241650Y-61375D01*
X242735Y-61250D01*
X243820D01*
X244905Y-61333D01*
X245835Y-61542D01*
G01X0Y0D02*
Y157480D01*
X157480D01*
Y0D01*
X0D01*
G01X43250Y-75000D02*
Y-72500D01*
X41390Y-73000D01*
G01Y-75000D02*
X45110D01*
G01X52240Y-74625D02*
X53170Y-74833D01*
X54255Y-74958D01*
X55650Y-75000D01*
X57045Y-74917D01*
X58130Y-74750D01*
X58905Y-74458D01*
X59060Y-74125D01*
X58750Y-73792D01*
X57975Y-73583D01*
X56890Y-73417D01*
X55805Y-73375D01*
X54720Y-73417D01*
X53325Y-73583D01*
X53790Y-72500D01*
X57975D01*
G01X68050Y-75083D02*
X67740Y-75042D01*
Y-74958D01*
X68050Y-74917D01*
X68360Y-74958D01*
Y-75042D01*
X68050Y-75083D01*
G01X80140Y-75000D02*
X80450Y-74458D01*
X80915Y-74000D01*
X81535Y-73583D01*
X82310Y-73125D01*
X83550Y-72500D01*
X77350D01*
G01X162600Y-65000D02*
Y-77500D01*
G01X192050Y-68750D02*
Y-66250D01*
X195770D01*
X197010Y-66375D01*
X197940Y-66667D01*
X198250Y-67000D01*
X197940Y-67333D01*
X197165Y-67583D01*
X195770Y-67708D01*
X192050D01*
G01X204450Y-66250D02*
Y-68750D01*
X210650D01*
G01X216075D02*
X219950Y-66250D01*
X223825Y-68750D01*
G01X222430Y-67875D02*
X217470D01*
G01X232350Y-66250D02*
Y-68750D01*
G01X228785Y-66250D02*
X235915D01*
G01X247850Y-68750D02*
X241650D01*
Y-66250D01*
X247850D01*
G01X245370Y-67458D02*
X241650D01*
G01X253740Y-68750D02*
Y-66250D01*
X256840D01*
X258080Y-66375D01*
X259010Y-66542D01*
X259785Y-66792D01*
X260405Y-67083D01*
X260560Y-67500D01*
X260405Y-67917D01*
X259785Y-68208D01*
X259010Y-68458D01*
X258080Y-68625D01*
X256840Y-68750D01*
X253740D01*
G01X192050Y-75000D02*
Y-72500D01*
X195770D01*
X197010Y-72625D01*
X197940Y-72917D01*
X198250Y-73250D01*
X197940Y-73583D01*
X197165Y-73833D01*
X195770Y-73958D01*
X192050D01*
G01X204450Y-72500D02*
Y-75000D01*
X210650D01*
G01X216075D02*
X219950Y-72500D01*
X223825Y-75000D01*
G01X222430Y-74125D02*
X217470D01*
G01X232350Y-72500D02*
Y-75000D01*
G01X228785Y-72500D02*
X235915D01*
G01X247850Y-75000D02*
X241650D01*
Y-72500D01*
X247850D01*
G01X245370Y-73708D02*
X241650D01*
G01X253740Y-75000D02*
Y-72500D01*
X256840D01*
X258080Y-72625D01*
X259010Y-72792D01*
X259785Y-73042D01*
X260405Y-73333D01*
X260560Y-73750D01*
X260405Y-74167D01*
X259785Y-74458D01*
X259010Y-74708D01*
X258080Y-74875D01*
X256840Y-75000D01*
X253740D01*
G01X316050Y-68750D02*
X314810Y-68708D01*
X313725Y-68542D01*
X312795Y-68292D01*
X312175Y-68000D01*
X311865Y-67667D01*
Y-67333D01*
X312175Y-67000D01*
X312795Y-66708D01*
X313725Y-66458D01*
X314810Y-66292D01*
X316050Y-66250D01*
X317290Y-66292D01*
X318375Y-66458D01*
X319305Y-66708D01*
X319925Y-67000D01*
X320235Y-67333D01*
Y-67667D01*
X319925Y-68000D01*
X319305Y-68292D01*
X318375Y-68542D01*
X317290Y-68708D01*
X316050Y-68750D01*
G01X317290Y-68083D02*
X319150Y-68750D01*
G01X328450Y-66250D02*
Y-68750D01*
G01X324885Y-66250D02*
X332015D01*
G01X340850Y-68750D02*
Y-67625D01*
X337750Y-66250D01*
G01X343950D02*
X340850Y-67625D01*
G01X289700Y-65000D02*
Y-77500D01*
G01X319305Y-72917D02*
X320235Y-72667D01*
X321320Y-72542D01*
X322560Y-72500D01*
X324110Y-72583D01*
X325195Y-72792D01*
X325505Y-73042D01*
X325350Y-73292D01*
X324730Y-73500D01*
X321630Y-73917D01*
X320235Y-74208D01*
X319305Y-74625D01*
X318995Y-75000D01*
X325505D01*
G01X331240Y-74500D02*
X332170Y-74792D01*
X333410Y-74958D01*
X334805Y-75000D01*
X336045Y-74958D01*
X337285Y-74750D01*
X338060Y-74500D01*
X338215Y-74250D01*
X337905Y-73958D01*
X336820Y-73750D01*
X335735Y-73667D01*
X334340D01*
G01X335735D02*
X336665Y-73542D01*
X337440Y-73333D01*
X337750Y-73083D01*
X337440Y-72833D01*
X336665Y-72625D01*
X335270Y-72500D01*
X333875Y-72542D01*
X332480Y-72708D01*
M02*
