G04 ================== begin FILE IDENTIFICATION RECORD ==================*
G04 Layout Name:  C:/CADENCE/SPB_17.2/NITA/allegro/PR1.brd*
G04 Film Name:    SPTOP*
G04 File Format:  Gerber RS274X*
G04 File Origin:  Cadence Allegro 17.2-S025*
G04 Origin Date:  Sun Dec 14 16:07:14 2025*
G04 *
G04 Layer:  VIA CLASS/PASTEMASK_TOP*
G04 Layer:  PIN/PASTEMASK_TOP*
G04 Layer:  PACKAGE GEOMETRY/PASTEMASK_TOP*
G04 Layer:  DRC ERROR CLASS/PASTEMASK_TOP*
G04 *
G04 Offset:    (0.00 0.00)*
G04 Mirror:    No*
G04 Mode:      Positive*
G04 Rotation:  0*
G04 FullContactRelief:  No*
G04 UndefLineWidth:     4.00*
G04 ================== end FILE IDENTIFICATION RECORD ====================*
%FSLAX25Y25*MOIN*%
%IR0*IPPOS*OFA0.00000B0.00000*MIA0B0*SFA1.00000B1.00000*%
%ADD22R,.1X.06*%
%ADD21R,.06X.1*%
%ADD20R,.046X.046*%
%ADD14C,.04724*%
%ADD13R,.12008X.07087*%
%ADD19R,.033X.04*%
%ADD16R,.04X.033*%
%ADD12R,.033X.051*%
%ADD10R,.051X.033*%
%ADD15R,.033X.045*%
%ADD18R,.045X.033*%
%ADD17R,.046X.071*%
%ADD11R,.076X.048*%
%LPD*%
G75*
G54D10*
X14000Y32463D03*
Y40337D03*
X12600Y91263D03*
Y99137D03*
X35000Y23537D03*
Y15663D03*
X30800Y92137D03*
Y84263D03*
X36400Y115937D03*
Y108063D03*
X53200Y23537D03*
Y15663D03*
X74200Y19863D03*
Y27737D03*
X93800Y61863D03*
Y69737D03*
X113400Y110863D03*
Y118737D03*
G54D11*
X14000Y53200D03*
Y61100D03*
Y110600D03*
Y118500D03*
X107800Y54600D03*
Y62500D03*
X96600Y110600D03*
Y118500D03*
X93800Y130200D03*
Y138100D03*
X130200Y51800D03*
Y59700D03*
G54D20*
X78400Y79145D03*
Y88200D03*
X100800Y93055D03*
Y84000D03*
G54D12*
X14263Y75600D03*
X22137D03*
X46463Y113400D03*
X55737Y103600D03*
X47863D03*
X54337Y113400D03*
X75337Y138600D03*
X67463D03*
X112263Y37800D03*
X120137D03*
X131863Y36400D03*
X117337Y137200D03*
X109463D03*
X139737Y36400D03*
G54D21*
X134900Y19600D03*
X147900D03*
G54D13*
X15400Y131600D03*
X110600Y15400D03*
G54D22*
X135800Y113900D03*
Y126900D03*
G54D14*
X20000Y20000D03*
X140000Y140000D03*
G54D15*
X29300Y45900D03*
X25200Y37800D03*
X33400D03*
X33700Y57700D03*
X37800Y65800D03*
X29600D03*
X58900Y54900D03*
X63000Y63000D03*
X54800D03*
X53100Y44500D03*
X49000Y36400D03*
X57200D03*
X72800Y44800D03*
X95300Y28300D03*
X76900Y52900D03*
X81000Y44800D03*
X99400Y36400D03*
X91200D03*
X142900Y82900D03*
X147000Y91000D03*
X138800D03*
G54D16*
X46857Y123200D03*
Y131600D03*
X45457Y141400D03*
X53943Y123200D03*
Y131600D03*
X52543Y141400D03*
G54D17*
X56156Y83672D03*
X123044Y88528D03*
G54D18*
X72800Y120400D03*
Y112200D03*
X80900Y116300D03*
G54D19*
X93800Y53943D03*
Y46857D03*
M02*
