G04 ================== begin FILE IDENTIFICATION RECORD ==================*
G04 Layout Name:  C:/CADENCE/SPB_17.2/NITA/allegro/PR1.brd*
G04 Film Name:    SSTOP*
G04 File Format:  Gerber RS274X*
G04 File Origin:  Cadence Allegro 17.2-S025*
G04 Origin Date:  Sun Dec 14 16:07:14 2025*
G04 *
G04 Layer:  USER PART NUMBER/SILKSCREEN_TOP*
G04 Layer:  TOLERANCE/SILKSCREEN_TOP*
G04 Layer:  REF DES/SILKSCREEN_TOP*
G04 Layer:  PACKAGE GEOMETRY/SILKSCREEN_TOP*
G04 Layer:  DEVICE TYPE/SILKSCREEN_TOP*
G04 Layer:  COMPONENT VALUE/SILKSCREEN_TOP*
G04 Layer:  BOARD GEOMETRY/SILKSCREEN_TOP*
G04 *
G04 Offset:    (0.00 0.00)*
G04 Mirror:    No*
G04 Mode:      Positive*
G04 Rotation:  0*
G04 FullContactRelief:  No*
G04 UndefLineWidth:     4.00*
G04 ================== end FILE IDENTIFICATION RECORD ====================*
%FSLAX25Y25*MOIN*%
%IR0*IPPOS*OFA0.00000B0.00000*MIA0B0*SFA1.00000B1.00000*%
%ADD10C,.00079*%
%ADD11C,.004*%
%ADD12C,.006*%
%ADD13C,.00591*%
%ADD14C,.00787*%
G75*
%LPD*%
G75*
G36*
G01X17937Y29510D02*
X10063D01*
Y43290D01*
X17937D01*
Y29510D01*
G37*
G36*
G01X19450Y48050D02*
Y65300D01*
X8550D01*
Y48050D01*
X19450D01*
G37*
G36*
G01X8663Y102090D02*
X16537D01*
Y88310D01*
X8663D01*
Y102090D01*
G37*
G36*
G01X11310Y71663D02*
Y79537D01*
X25090D01*
Y71663D01*
X11310D01*
G37*
G36*
G01X19450Y105450D02*
Y122700D01*
X8550D01*
Y105450D01*
X19450D01*
G37*
G36*
G01X8904Y135537D02*
Y127663D01*
X21896D01*
Y135537D01*
X8904D01*
G37*
G36*
G01X38937Y12710D02*
X31063D01*
Y26490D01*
X38937D01*
Y12710D01*
G37*
G36*
G01X39800Y59100D02*
Y62700D01*
X40200D01*
Y68900D01*
X35400D01*
Y64700D01*
X32000D01*
Y68900D01*
X27300D01*
Y62700D01*
X27600D01*
Y58900D01*
X31300D01*
Y54600D01*
X36100D01*
Y58900D01*
X39800D01*
Y59100D01*
G37*
G36*
G01X34737Y81310D02*
X26863D01*
Y95090D01*
X34737D01*
Y81310D01*
G37*
G36*
G01X40337Y105110D02*
X32463D01*
Y118890D01*
X40337D01*
Y105110D01*
G37*
G36*
G01X43510Y109463D02*
Y117337D01*
X57290D01*
Y109463D01*
X43510D01*
G37*
G36*
G01X57093Y126153D02*
Y120247D01*
X43707D01*
Y126153D01*
X57093D01*
G37*
G36*
G01Y134553D02*
Y128647D01*
X43707D01*
Y134553D01*
X57093D01*
G37*
G36*
G01X55693Y144353D02*
Y138447D01*
X42307D01*
Y144353D01*
X55693D01*
G37*
G36*
G01X57137Y12710D02*
X49263D01*
Y26490D01*
X57137D01*
Y12710D01*
G37*
G36*
G01X70263Y30690D02*
X78137D01*
Y16910D01*
X70263D01*
Y30690D01*
G37*
G36*
G01X65000Y56300D02*
Y59900D01*
X65400D01*
Y66100D01*
X60600D01*
Y61900D01*
X57200D01*
Y66100D01*
X52500D01*
Y59900D01*
X52800D01*
Y56100D01*
X56500D01*
Y51800D01*
X61300D01*
Y56100D01*
X65000D01*
Y56300D01*
G37*
G36*
G01X70800Y51500D02*
Y47900D01*
X70400D01*
Y41700D01*
X75200D01*
Y45900D01*
X78600D01*
Y41700D01*
X83300D01*
Y47900D01*
X83000D01*
Y51700D01*
X79300D01*
Y56000D01*
X74500D01*
Y51700D01*
X70800D01*
Y51500D01*
G37*
G36*
G01X44910Y99663D02*
Y107537D01*
X58690D01*
Y99663D01*
X44910D01*
G37*
G36*
G01X79500Y122400D02*
X75900D01*
Y122800D01*
X69700D01*
Y118000D01*
X73900D01*
Y114600D01*
X69700D01*
Y109900D01*
X75900D01*
Y110200D01*
X79700D01*
Y113900D01*
X84000D01*
Y118700D01*
X79700D01*
Y122400D01*
X79500D01*
G37*
G36*
G01X64510Y134663D02*
Y142537D01*
X78290D01*
Y134663D01*
X64510D01*
G37*
G36*
G01X104104Y19337D02*
Y11463D01*
X117096D01*
Y19337D01*
X104104D01*
G37*
G36*
G01X101400Y29700D02*
Y33300D01*
X101800D01*
Y39500D01*
X97000D01*
Y35300D01*
X93600D01*
Y39500D01*
X88900D01*
Y33300D01*
X89200D01*
Y29500D01*
X92900D01*
Y25200D01*
X97700D01*
Y29500D01*
X101400D01*
Y29700D01*
G37*
G36*
G01X113250Y49450D02*
Y66700D01*
X102350D01*
Y49450D01*
X113250D01*
G37*
G36*
G01X97737Y58910D02*
X89863D01*
Y72690D01*
X97737D01*
Y58910D01*
G37*
G36*
G01X102050Y105450D02*
Y122700D01*
X91150D01*
Y105450D01*
X102050D01*
G37*
G36*
G01X99250Y125050D02*
Y142300D01*
X88350D01*
Y125050D01*
X99250D01*
G37*
G36*
G01X135650Y46650D02*
Y63900D01*
X124750D01*
Y46650D01*
X135650D01*
G37*
G36*
G01X123090Y41737D02*
Y33863D01*
X109310D01*
Y41737D01*
X123090D01*
G37*
G36*
G01X142690Y40337D02*
Y32463D01*
X128910D01*
Y40337D01*
X142690D01*
G37*
G36*
G01X109463Y121690D02*
X117337D01*
Y107910D01*
X109463D01*
Y121690D01*
G37*
G36*
G01X127300Y132400D02*
Y108400D01*
X144300D01*
Y132400D01*
X127300D01*
G37*
G36*
G01X106510Y133263D02*
Y141137D01*
X120290D01*
Y133263D01*
X106510D01*
G37*
G36*
G01X149000Y84300D02*
Y87900D01*
X149400D01*
Y94100D01*
X144600D01*
Y89900D01*
X141200D01*
Y94100D01*
X136500D01*
Y87900D01*
X136800D01*
Y84100D01*
X140500D01*
Y79800D01*
X145300D01*
Y84100D01*
X149000D01*
Y84300D01*
G37*
G36*
G01X52613Y72846D02*
Y94499D01*
X81943D01*
Y72846D01*
X52613D01*
G37*
G36*
G01X126587Y99354D02*
Y77701D01*
X97257D01*
Y99354D01*
X126587D01*
G37*
G54D10*
G01X10085Y127308D02*
Y126324D01*
G01X9708Y127308D02*
X10462D01*
G01X11594Y126324D02*
X10938D01*
Y127308D01*
X11594D01*
G01X11332Y126832D02*
X10938D01*
G01X12103Y126455D02*
X12234Y126373D01*
X12381Y126324D01*
X12513D01*
X12644Y126373D01*
X12742Y126455D01*
X12791Y126570D01*
X12759Y126685D01*
X12677Y126783D01*
X12529Y126849D01*
X12332Y126882D01*
X12217Y126947D01*
X12168Y127062D01*
X12201Y127177D01*
X12283Y127259D01*
X12398Y127308D01*
X12513D01*
X12627Y127275D01*
X12726Y127193D01*
G01X13628Y127308D02*
Y126324D01*
G01X13251Y127308D02*
X14005D01*
G01X15662Y126324D02*
Y127308D01*
X16056D01*
X16187Y127259D01*
X16285Y127144D01*
X16318Y127013D01*
X16285Y126882D01*
X16203Y126783D01*
X16056Y126734D01*
X15662D01*
G01X17171Y126324D02*
X17040Y126340D01*
X16925Y126406D01*
X16827Y126504D01*
X16761Y126619D01*
X16728Y126750D01*
Y126882D01*
X16761Y127013D01*
X16827Y127128D01*
X16925Y127226D01*
X17040Y127292D01*
X17171Y127308D01*
X17302Y127292D01*
X17417Y127226D01*
X17515Y127128D01*
X17581Y127013D01*
X17614Y126882D01*
Y126750D01*
X17581Y126619D01*
X17515Y126504D01*
X17417Y126406D01*
X17302Y126340D01*
X17171Y126324D01*
G01X18155Y127308D02*
X18549D01*
G01X18352D02*
Y126324D01*
G01X18155D02*
X18549D01*
G01X19156D02*
Y127308D01*
X19910Y126324D01*
Y127308D01*
G01X20714D02*
Y126324D01*
G01X20337Y127308D02*
X21091D01*
G01X14219Y136797D02*
Y135813D01*
G01X13842Y136797D02*
X14596D01*
G01X15072Y135813D02*
Y136797D01*
X15466D01*
X15597Y136748D01*
X15695Y136633D01*
X15728Y136502D01*
X15695Y136371D01*
X15613Y136272D01*
X15466Y136223D01*
X15072D01*
G01X16269Y136633D02*
X16368Y136731D01*
X16483Y136781D01*
X16614Y136797D01*
X16778Y136764D01*
X16893Y136682D01*
X16925Y136584D01*
X16909Y136485D01*
X16843Y136403D01*
X16515Y136239D01*
X16368Y136125D01*
X16269Y135961D01*
X16237Y135813D01*
X16925D01*
G01X105285Y11108D02*
Y10124D01*
G01X104908Y11108D02*
X105662D01*
G01X106794Y10124D02*
X106138D01*
Y11108D01*
X106794D01*
G01X106532Y10632D02*
X106138D01*
G01X107303Y10255D02*
X107434Y10173D01*
X107581Y10124D01*
X107713D01*
X107844Y10173D01*
X107942Y10255D01*
X107991Y10370D01*
X107959Y10485D01*
X107877Y10583D01*
X107729Y10649D01*
X107532Y10682D01*
X107417Y10747D01*
X107368Y10862D01*
X107401Y10977D01*
X107483Y11059D01*
X107598Y11108D01*
X107713D01*
X107827Y11075D01*
X107926Y10993D01*
G01X108828Y11108D02*
Y10124D01*
G01X108451Y11108D02*
X109205D01*
G01X110862Y10124D02*
Y11108D01*
X111256D01*
X111387Y11059D01*
X111485Y10944D01*
X111518Y10813D01*
X111485Y10682D01*
X111403Y10583D01*
X111256Y10534D01*
X110862D01*
G01X112371Y10124D02*
X112240Y10140D01*
X112125Y10206D01*
X112027Y10304D01*
X111961Y10419D01*
X111928Y10550D01*
Y10682D01*
X111961Y10813D01*
X112027Y10928D01*
X112125Y11026D01*
X112240Y11092D01*
X112371Y11108D01*
X112502Y11092D01*
X112617Y11026D01*
X112715Y10928D01*
X112781Y10813D01*
X112814Y10682D01*
Y10550D01*
X112781Y10419D01*
X112715Y10304D01*
X112617Y10206D01*
X112502Y10140D01*
X112371Y10124D01*
G01X113355Y11108D02*
X113749D01*
G01X113552D02*
Y10124D01*
G01X113355D02*
X113749D01*
G01X114356D02*
Y11108D01*
X115110Y10124D01*
Y11108D01*
G01X115914D02*
Y10124D01*
G01X115537Y11108D02*
X116291D01*
G01X109419Y20597D02*
Y19613D01*
G01X109042Y20597D02*
X109796D01*
G01X110272Y19613D02*
Y20597D01*
X110666D01*
X110797Y20548D01*
X110895Y20433D01*
X110928Y20302D01*
X110895Y20171D01*
X110813Y20072D01*
X110666Y20023D01*
X110272D01*
G01X111781Y19613D02*
Y20597D01*
X111584Y20400D01*
G01Y19613D02*
X111978D01*
G54D11*
G01X5787Y149800D02*
Y152300D01*
X7013Y149800D01*
Y152300D01*
G01X8600Y151467D02*
Y149800D01*
G01Y152133D02*
X8547Y152175D01*
Y152258D01*
X8600Y152300D01*
X8653Y152258D01*
Y152175D01*
X8600Y152133D01*
G01X10800Y152300D02*
Y149800D01*
G01X10427Y151467D02*
X11173D01*
G01X13480Y149800D02*
Y151467D01*
G01Y151175D02*
X13373Y151342D01*
X13213Y151425D01*
X13027Y151467D01*
X12840Y151383D01*
X12680Y151217D01*
X12573Y150967D01*
X12520Y150633D01*
X12573Y150300D01*
X12680Y150050D01*
X12840Y149883D01*
X13027Y149800D01*
X13213Y149842D01*
X13373Y149967D01*
X13480Y150133D01*
G01X16733Y149800D02*
X17400Y152300D01*
X18067Y149800D01*
G01X17827Y150675D02*
X16973D01*
G01X19147Y149800D02*
Y151467D01*
G01Y151050D02*
X19253Y151258D01*
X19413Y151425D01*
X19627Y151467D01*
X19813Y151425D01*
X19973Y151258D01*
X20053Y150967D01*
Y149800D01*
G01X22280Y152300D02*
Y149800D01*
G01Y150175D02*
X22173Y149967D01*
X22013Y149842D01*
X21827Y149800D01*
X21613Y149883D01*
X21453Y150092D01*
X21347Y150342D01*
X21320Y150633D01*
X21347Y150925D01*
X21453Y151175D01*
X21613Y151383D01*
X21827Y151467D01*
X22013Y151425D01*
X22147Y151342D01*
X22280Y151175D01*
G01X23627Y149800D02*
Y151467D01*
G01Y151133D02*
X23760Y151300D01*
X23893Y151425D01*
X24080Y151467D01*
X24213Y151425D01*
X24373Y151300D01*
G01X25800Y150925D02*
X26653D01*
X26573Y151217D01*
X26440Y151383D01*
X26253Y151467D01*
X26067Y151425D01*
X25907Y151300D01*
X25800Y151008D01*
X25747Y150758D01*
Y150508D01*
X25800Y150258D01*
X25933Y150008D01*
X26093Y149842D01*
X26280Y149800D01*
X26467Y149883D01*
X26653Y150133D01*
G01X28400Y151467D02*
Y149800D01*
G01Y152133D02*
X28347Y152175D01*
Y152258D01*
X28400Y152300D01*
X28453Y152258D01*
Y152175D01*
X28400Y152133D01*
G01X5867Y145600D02*
Y148100D01*
X6507D01*
X6720Y147975D01*
X6880Y147683D01*
X6933Y147350D01*
X6880Y147017D01*
X6747Y146767D01*
X6507Y146642D01*
X5867D01*
G01X8227Y145600D02*
Y147267D01*
G01Y146933D02*
X8360Y147100D01*
X8493Y147225D01*
X8680Y147267D01*
X8813Y147225D01*
X8973Y147100D01*
G01X13587Y147892D02*
X13427Y148017D01*
X13240Y148100D01*
X13027D01*
X12787Y147975D01*
X12600Y147767D01*
X12467Y147517D01*
X12360Y147100D01*
X12333Y146725D01*
X12387Y146350D01*
X12467Y146100D01*
X12627Y145850D01*
X12813Y145683D01*
X13000Y145600D01*
X13187D01*
X13373Y145683D01*
X13533Y145808D01*
X13667Y145975D01*
G01X15733Y145600D02*
X14667D01*
Y148100D01*
X15733D01*
G01X15307Y146892D02*
X14667D01*
G01X16893Y145600D02*
Y148100D01*
X17907D01*
G01X17533Y146892D02*
X16893D01*
G01X21293Y147683D02*
X21453Y147933D01*
X21640Y148058D01*
X21853Y148100D01*
X22120Y148017D01*
X22307Y147808D01*
X22360Y147558D01*
X22333Y147308D01*
X22227Y147100D01*
X21693Y146683D01*
X21453Y146392D01*
X21293Y145975D01*
X21240Y145600D01*
X22360D01*
G01X24000Y148100D02*
X23787Y148017D01*
X23627Y147808D01*
X23520Y147558D01*
X23440Y147225D01*
X23413Y146850D01*
X23440Y146475D01*
X23520Y146142D01*
X23627Y145892D01*
X23787Y145683D01*
X24000Y145600D01*
X24213Y145683D01*
X24373Y145892D01*
X24480Y146142D01*
X24560Y146475D01*
X24587Y146850D01*
X24560Y147225D01*
X24480Y147558D01*
X24373Y147808D01*
X24213Y148017D01*
X24000Y148100D01*
G01X25693Y147683D02*
X25853Y147933D01*
X26040Y148058D01*
X26253Y148100D01*
X26520Y148017D01*
X26707Y147808D01*
X26760Y147558D01*
X26733Y147308D01*
X26627Y147100D01*
X26093Y146683D01*
X25853Y146392D01*
X25693Y145975D01*
X25640Y145600D01*
X26760D01*
G01X27813Y145975D02*
X27973Y145767D01*
X28160Y145642D01*
X28400Y145600D01*
X28640Y145683D01*
X28827Y145850D01*
X28960Y146142D01*
X28987Y146475D01*
X28933Y146808D01*
X28800Y147017D01*
X28613Y147183D01*
X28427Y147225D01*
X28240Y147183D01*
X28000Y147017D01*
X28080Y148100D01*
X28800D01*
G01X30253Y146433D02*
X30947D01*
G01X32293Y147683D02*
X32453Y147933D01*
X32640Y148058D01*
X32853Y148100D01*
X33120Y148017D01*
X33307Y147808D01*
X33360Y147558D01*
X33333Y147308D01*
X33227Y147100D01*
X32693Y146683D01*
X32453Y146392D01*
X32293Y145975D01*
X32240Y145600D01*
X33360D01*
G01X35000Y148100D02*
X34787Y148017D01*
X34627Y147808D01*
X34520Y147558D01*
X34440Y147225D01*
X34413Y146850D01*
X34440Y146475D01*
X34520Y146142D01*
X34627Y145892D01*
X34787Y145683D01*
X35000Y145600D01*
X35213Y145683D01*
X35373Y145892D01*
X35480Y146142D01*
X35560Y146475D01*
X35587Y146850D01*
X35560Y147225D01*
X35480Y147558D01*
X35373Y147808D01*
X35213Y148017D01*
X35000Y148100D01*
G01X36693Y147683D02*
X36853Y147933D01*
X37040Y148058D01*
X37253Y148100D01*
X37520Y148017D01*
X37707Y147808D01*
X37760Y147558D01*
X37733Y147308D01*
X37627Y147100D01*
X37093Y146683D01*
X36853Y146392D01*
X36693Y145975D01*
X36640Y145600D01*
X37760D01*
G01X38893Y146642D02*
X39080Y146933D01*
X39240Y147100D01*
X39453Y147183D01*
X39640Y147100D01*
X39773Y146933D01*
X39880Y146683D01*
X39907Y146392D01*
X39880Y146142D01*
X39773Y145892D01*
X39613Y145683D01*
X39427Y145600D01*
X39213Y145683D01*
X39027Y145933D01*
X38920Y146308D01*
X38893Y146725D01*
X38947Y147267D01*
X39027Y147558D01*
X39160Y147850D01*
X39347Y148058D01*
X39533Y148100D01*
X39720Y148017D01*
X39853Y147808D01*
G01X57702Y95483D02*
Y97983D01*
X58342D01*
X58555Y97858D01*
X58715Y97566D01*
X58768Y97233D01*
X58715Y96900D01*
X58582Y96650D01*
X58342Y96525D01*
X57702D01*
G01X60435Y95483D02*
Y97983D01*
X60115Y97483D01*
G01Y95483D02*
X60755D01*
G01X113667Y74200D02*
Y76700D01*
X114307D01*
X114520Y76575D01*
X114680Y76283D01*
X114733Y75950D01*
X114680Y75617D01*
X114547Y75367D01*
X114307Y75242D01*
X113667D01*
G01X115893Y76283D02*
X116053Y76533D01*
X116240Y76658D01*
X116453Y76700D01*
X116720Y76617D01*
X116907Y76408D01*
X116960Y76158D01*
X116933Y75908D01*
X116827Y75700D01*
X116293Y75283D01*
X116053Y74992D01*
X115893Y74575D01*
X115840Y74200D01*
X116960D01*
G01X23500Y62733D02*
X21000D01*
Y61667D01*
G01Y58167D02*
Y59233D01*
X23500D01*
Y58167D01*
G01X22292Y58593D02*
Y59233D01*
G01X21000Y55787D02*
X23500D01*
Y55253D01*
X23375Y55040D01*
X23208Y54880D01*
X22958Y54747D01*
X22667Y54640D01*
X22250Y54613D01*
X21833Y54640D01*
X21542Y54747D01*
X21292Y54880D01*
X21125Y55040D01*
X21000Y55253D01*
Y55787D01*
G01X23083Y52207D02*
X23333Y52047D01*
X23458Y51860D01*
X23500Y51647D01*
X23417Y51380D01*
X23208Y51193D01*
X22958Y51140D01*
X22708Y51167D01*
X22500Y51273D01*
X22083Y51807D01*
X21792Y52047D01*
X21375Y52207D01*
X21000Y52260D01*
Y51140D01*
G01X36700Y41700D02*
X36783Y42207D01*
X37117Y42650D01*
X37617Y43030D01*
X38200Y43283D01*
X38867Y43410D01*
X39533D01*
X40200Y43283D01*
X40783Y43030D01*
X41283Y42650D01*
X41617Y42207D01*
X41700Y41700D01*
X41617Y41193D01*
X41283Y40750D01*
X40783Y40370D01*
X40200Y40117D01*
X39533Y39990D01*
X38867D01*
X38200Y40117D01*
X37617Y40370D01*
X37117Y40750D01*
X36783Y41193D01*
X36700Y41700D01*
G01X38033Y41193D02*
X36700Y40433D01*
G01Y36600D02*
X36783Y36157D01*
X37033Y35650D01*
X37450Y35333D01*
X38033Y35207D01*
X38617Y35333D01*
X39117Y35713D01*
X39367Y36283D01*
Y36917D01*
X39533Y37297D01*
X39950Y37613D01*
X40533Y37740D01*
X41117Y37550D01*
X41533Y37107D01*
X41700Y36600D01*
X41533Y36093D01*
X41117Y35650D01*
X40533Y35460D01*
X39950Y35587D01*
X39533Y35903D01*
X39367Y36283D01*
Y36917D01*
X39117Y37487D01*
X38617Y37867D01*
X38033Y37993D01*
X37450Y37867D01*
X37033Y37550D01*
X36783Y37043D01*
X36700Y36600D01*
G01X23300Y44600D02*
X35300D01*
Y39000D01*
X23300D01*
Y44600D01*
G01X41100Y53200D02*
X40593Y53283D01*
X40150Y53617D01*
X39770Y54117D01*
X39517Y54700D01*
X39390Y55367D01*
Y56033D01*
X39517Y56700D01*
X39770Y57283D01*
X40150Y57783D01*
X40593Y58117D01*
X41100Y58200D01*
X41607Y58117D01*
X42050Y57783D01*
X42430Y57283D01*
X42683Y56700D01*
X42810Y56033D01*
Y55367D01*
X42683Y54700D01*
X42430Y54117D01*
X42050Y53617D01*
X41607Y53283D01*
X41100Y53200D01*
G01X41607Y54533D02*
X42367Y53200D01*
G01X44807Y54200D02*
X45187Y53617D01*
X45693Y53283D01*
X46263Y53200D01*
X46770Y53283D01*
X47277Y53700D01*
X47593Y54200D01*
X47657Y54700D01*
X47530Y55283D01*
X47087Y55700D01*
X46643Y55867D01*
X46073D01*
G01X46643D02*
X47023Y56117D01*
X47340Y56533D01*
X47467Y57033D01*
X47340Y57533D01*
X47023Y57950D01*
X46453Y58200D01*
X45883Y58117D01*
X45313Y57783D01*
G01X39700Y59000D02*
X27700D01*
Y64600D01*
X39700D01*
Y59000D01*
G01X22700Y108067D02*
X25200D01*
Y109133D01*
G01Y112633D02*
Y111567D01*
X22700D01*
Y112633D01*
G01X23908Y112207D02*
Y111567D01*
G01X25200Y115013D02*
X22700D01*
Y115547D01*
X22825Y115760D01*
X22992Y115920D01*
X23242Y116053D01*
X23533Y116160D01*
X23950Y116187D01*
X24367Y116160D01*
X24658Y116053D01*
X24908Y115920D01*
X25075Y115760D01*
X25200Y115547D01*
Y115013D01*
G01Y119100D02*
X22700D01*
X23200Y118780D01*
G01X25200D02*
Y119420D01*
G01X61600Y38700D02*
X61683Y39207D01*
X62017Y39650D01*
X62517Y40030D01*
X63100Y40283D01*
X63767Y40410D01*
X64433D01*
X65100Y40283D01*
X65683Y40030D01*
X66183Y39650D01*
X66517Y39207D01*
X66600Y38700D01*
X66517Y38193D01*
X66183Y37750D01*
X65683Y37370D01*
X65100Y37117D01*
X64433Y36990D01*
X63767D01*
X63100Y37117D01*
X62517Y37370D01*
X62017Y37750D01*
X61683Y38193D01*
X61600Y38700D01*
G01X62933Y38193D02*
X61600Y37433D01*
G01X62183Y34677D02*
X61767Y34233D01*
X61600Y33727D01*
X61767Y33220D01*
X62267Y32777D01*
X63017Y32460D01*
X63767Y32333D01*
X64683D01*
X65433Y32460D01*
X66100Y32777D01*
X66433Y33157D01*
X66600Y33600D01*
X66433Y34107D01*
X66100Y34487D01*
X65600Y34740D01*
X64933Y34867D01*
X64350Y34740D01*
X63767Y34423D01*
X63433Y34043D01*
X63350Y33600D01*
X63517Y33093D01*
X63933Y32713D01*
X64683Y32333D01*
G01X69100Y58800D02*
X68593Y58883D01*
X68150Y59217D01*
X67770Y59717D01*
X67517Y60300D01*
X67390Y60967D01*
Y61633D01*
X67517Y62300D01*
X67770Y62883D01*
X68150Y63383D01*
X68593Y63717D01*
X69100Y63800D01*
X69607Y63717D01*
X70050Y63383D01*
X70430Y62883D01*
X70683Y62300D01*
X70810Y61633D01*
Y60967D01*
X70683Y60300D01*
X70430Y59717D01*
X70050Y59217D01*
X69607Y58883D01*
X69100Y58800D01*
G01X69607Y60133D02*
X70367Y58800D01*
G01X74960D02*
Y63800D01*
X72617Y60217D01*
X75783D01*
G01X64900Y56200D02*
X52900D01*
Y61800D01*
X64900D01*
Y56200D01*
G01X47100Y43200D02*
X59100D01*
Y37600D01*
X47100D01*
Y43200D01*
G01X73300Y35000D02*
X72793Y35083D01*
X72350Y35417D01*
X71970Y35917D01*
X71717Y36500D01*
X71590Y37167D01*
Y37833D01*
X71717Y38500D01*
X71970Y39083D01*
X72350Y39583D01*
X72793Y39917D01*
X73300Y40000D01*
X73807Y39917D01*
X74250Y39583D01*
X74630Y39083D01*
X74883Y38500D01*
X75010Y37833D01*
Y37167D01*
X74883Y36500D01*
X74630Y35917D01*
X74250Y35417D01*
X73807Y35083D01*
X73300Y35000D01*
G01X73807Y36333D02*
X74567Y35000D01*
G01X77007Y35750D02*
X77387Y35333D01*
X77830Y35083D01*
X78400Y35000D01*
X78970Y35167D01*
X79413Y35500D01*
X79730Y36083D01*
X79793Y36750D01*
X79667Y37417D01*
X79350Y37833D01*
X78907Y38167D01*
X78463Y38250D01*
X78020Y38167D01*
X77450Y37833D01*
X77640Y40000D01*
X79350D01*
G01X70900Y51600D02*
X82900D01*
Y46000D01*
X70900D01*
Y51600D01*
G01X71900Y123200D02*
X71393Y123283D01*
X70950Y123617D01*
X70570Y124117D01*
X70317Y124700D01*
X70190Y125367D01*
Y126033D01*
X70317Y126700D01*
X70570Y127283D01*
X70950Y127783D01*
X71393Y128117D01*
X71900Y128200D01*
X72407Y128117D01*
X72850Y127783D01*
X73230Y127283D01*
X73483Y126700D01*
X73610Y126033D01*
Y125367D01*
X73483Y124700D01*
X73230Y124117D01*
X72850Y123617D01*
X72407Y123283D01*
X71900Y123200D01*
G01X72407Y124533D02*
X73167Y123200D01*
G01X77000D02*
Y128200D01*
X76240Y127200D01*
G01Y123200D02*
X77760D01*
G01X80897Y127367D02*
X81277Y127867D01*
X81720Y128117D01*
X82227Y128200D01*
X82860Y128033D01*
X83303Y127617D01*
X83430Y127117D01*
X83367Y126617D01*
X83113Y126200D01*
X81847Y125367D01*
X81277Y124783D01*
X80897Y123950D01*
X80770Y123200D01*
X83430D01*
G01X79600Y122300D02*
Y110300D01*
X74000D01*
Y122300D01*
X79600D01*
G01X90100Y19600D02*
X89593Y19683D01*
X89150Y20017D01*
X88770Y20517D01*
X88517Y21100D01*
X88390Y21767D01*
Y22433D01*
X88517Y23100D01*
X88770Y23683D01*
X89150Y24183D01*
X89593Y24517D01*
X90100Y24600D01*
X90607Y24517D01*
X91050Y24183D01*
X91430Y23683D01*
X91683Y23100D01*
X91810Y22433D01*
Y21767D01*
X91683Y21100D01*
X91430Y20517D01*
X91050Y20017D01*
X90607Y19683D01*
X90100Y19600D01*
G01X90607Y20933D02*
X91367Y19600D01*
G01X95200D02*
Y24600D01*
X94440Y23600D01*
G01Y19600D02*
X95960D01*
G01X100300Y24600D02*
X99793Y24433D01*
X99413Y24017D01*
X99160Y23517D01*
X98970Y22850D01*
X98907Y22100D01*
X98970Y21350D01*
X99160Y20683D01*
X99413Y20183D01*
X99793Y19767D01*
X100300Y19600D01*
X100807Y19767D01*
X101187Y20183D01*
X101440Y20683D01*
X101630Y21350D01*
X101693Y22100D01*
X101630Y22850D01*
X101440Y23517D01*
X101187Y24017D01*
X100807Y24433D01*
X100300Y24600D01*
G01X101300Y29600D02*
X89300D01*
Y35200D01*
X101300D01*
Y29600D01*
G01X101013Y67200D02*
Y69700D01*
X101547D01*
X101760Y69575D01*
X101920Y69408D01*
X102053Y69158D01*
X102160Y68867D01*
X102187Y68450D01*
X102160Y68033D01*
X102053Y67742D01*
X101920Y67492D01*
X101760Y67325D01*
X101547Y67200D01*
X101013D01*
G01X105420D02*
Y69700D01*
X104433Y67908D01*
X105767D01*
G01X103813Y113400D02*
Y115900D01*
X104347D01*
X104560Y115775D01*
X104720Y115608D01*
X104853Y115358D01*
X104960Y115067D01*
X104987Y114650D01*
X104960Y114233D01*
X104853Y113942D01*
X104720Y113692D01*
X104560Y113525D01*
X104347Y113400D01*
X103813D01*
G01X107393Y114442D02*
X107580Y114733D01*
X107740Y114900D01*
X107953Y114983D01*
X108140Y114900D01*
X108273Y114733D01*
X108380Y114483D01*
X108407Y114192D01*
X108380Y113942D01*
X108273Y113692D01*
X108113Y113483D01*
X107927Y113400D01*
X107713Y113483D01*
X107527Y113733D01*
X107420Y114108D01*
X107393Y114525D01*
X107447Y115067D01*
X107527Y115358D01*
X107660Y115650D01*
X107847Y115858D01*
X108033Y115900D01*
X108220Y115817D01*
X108353Y115608D01*
G01X101013Y127400D02*
Y129900D01*
X101547D01*
X101760Y129775D01*
X101920Y129608D01*
X102053Y129358D01*
X102160Y129067D01*
X102187Y128650D01*
X102160Y128233D01*
X102053Y127942D01*
X101920Y127692D01*
X101760Y127525D01*
X101547Y127400D01*
X101013D01*
G01X104513Y127775D02*
X104673Y127567D01*
X104860Y127442D01*
X105100Y127400D01*
X105340Y127483D01*
X105527Y127650D01*
X105660Y127942D01*
X105687Y128275D01*
X105633Y128608D01*
X105500Y128817D01*
X105313Y128983D01*
X105127Y129025D01*
X104940Y128983D01*
X104700Y128817D01*
X104780Y129900D01*
X105500D01*
G01X130733Y5200D02*
X131000Y4700D01*
X131320Y4367D01*
X131693Y4200D01*
X132120Y4367D01*
X132440Y4700D01*
X132760Y5200D01*
X132867Y5867D01*
Y9200D01*
G01X135187Y8367D02*
X135507Y8867D01*
X135880Y9117D01*
X136307Y9200D01*
X136840Y9033D01*
X137213Y8617D01*
X137320Y8117D01*
X137267Y7617D01*
X137053Y7200D01*
X135987Y6367D01*
X135507Y5783D01*
X135187Y4950D01*
X135080Y4200D01*
X137320D01*
G01X135900Y28100D02*
X129400D01*
Y28000D01*
Y11100D01*
X135900D01*
G01X133500Y95200D02*
X132993Y95283D01*
X132550Y95617D01*
X132170Y96117D01*
X131917Y96700D01*
X131790Y97367D01*
Y98033D01*
X131917Y98700D01*
X132170Y99283D01*
X132550Y99783D01*
X132993Y100117D01*
X133500Y100200D01*
X134007Y100117D01*
X134450Y99783D01*
X134830Y99283D01*
X135083Y98700D01*
X135210Y98033D01*
Y97367D01*
X135083Y96700D01*
X134830Y96117D01*
X134450Y95617D01*
X134007Y95283D01*
X133500Y95200D01*
G01X134007Y96533D02*
X134767Y95200D01*
G01X138600D02*
Y100200D01*
X137840Y99200D01*
G01Y95200D02*
X139360D01*
G01X143700D02*
Y100200D01*
X142940Y99200D01*
G01Y95200D02*
X144460D01*
G01X133533Y103200D02*
X133800Y102700D01*
X134120Y102367D01*
X134493Y102200D01*
X134920Y102367D01*
X135240Y102700D01*
X135560Y103200D01*
X135667Y103867D01*
Y107200D01*
G01X139000Y102200D02*
Y107200D01*
X138360Y106200D01*
G01Y102200D02*
X139640D01*
G01X127300Y114900D02*
Y108400D01*
X144300D01*
Y109900D01*
Y114900D01*
G01Y125900D02*
Y132400D01*
X144200D01*
X127300D01*
Y125900D01*
G01X146900Y11100D02*
X153400D01*
Y28100D01*
X151900D01*
X146900D01*
G01X138813Y53200D02*
Y55700D01*
X139347D01*
X139560Y55575D01*
X139720Y55408D01*
X139853Y55158D01*
X139960Y54867D01*
X139987Y54450D01*
X139960Y54033D01*
X139853Y53742D01*
X139720Y53492D01*
X139560Y53325D01*
X139347Y53200D01*
X138813D01*
G01X142313Y53700D02*
X142473Y53408D01*
X142687Y53242D01*
X142927Y53200D01*
X143140Y53242D01*
X143353Y53450D01*
X143487Y53700D01*
X143513Y53950D01*
X143460Y54242D01*
X143273Y54450D01*
X143087Y54533D01*
X142847D01*
G01X143087D02*
X143247Y54658D01*
X143380Y54867D01*
X143433Y55117D01*
X143380Y55367D01*
X143247Y55575D01*
X143007Y55700D01*
X142767Y55658D01*
X142527Y55492D01*
G01X148900Y84200D02*
X136900D01*
Y89800D01*
X148900D01*
Y84200D01*
G54D12*
G01X19150Y49200D02*
X14850D01*
G01D02*
X14000Y48350D01*
G01D02*
X13150Y49200D01*
G01D02*
X8850D01*
G01D02*
Y65000D01*
G01D02*
X19150D01*
G01Y106600D02*
X14850D01*
G01D02*
X14000Y105750D01*
G01D02*
X13150Y106600D01*
G01D02*
X8850D01*
G01D02*
Y122400D01*
G01D02*
X19150D01*
G01Y65000D02*
Y49200D01*
G01Y122400D02*
Y106600D01*
G01X106950Y50600D02*
X102650D01*
G01D02*
Y66400D01*
G01D02*
X112950D01*
G01X101750Y122400D02*
Y106600D01*
G01D02*
X97450D01*
G01D02*
X96600Y105750D01*
G01D02*
X95750Y106600D01*
G01D02*
X91450D01*
G01D02*
Y122400D01*
G01D02*
X101750D01*
G01X98950Y142000D02*
Y126200D01*
G01D02*
X94650D01*
G01D02*
X93800Y125350D01*
G01D02*
X92950Y126200D01*
G01D02*
X88650D01*
G01D02*
Y142000D01*
G01D02*
X98950D01*
G01X135350Y47800D02*
X131050D01*
G01D02*
X130200Y46950D01*
G01D02*
X129350Y47800D01*
G01D02*
X125050D01*
G01D02*
Y63600D01*
G01X112950Y66400D02*
Y50600D01*
G01D02*
X108650D01*
G01D02*
X107800Y49750D01*
G01D02*
X106950Y50600D01*
G01X125050Y63600D02*
X135350D01*
G01D02*
Y47800D01*
G54D13*
G01X8664Y23800D02*
Y27737D01*
X9648D01*
X9963Y27540D01*
X10160Y27278D01*
X10238Y26753D01*
X10160Y26228D01*
X9923Y25900D01*
X9648Y25703D01*
X8664D01*
G01X9648D02*
X10238Y23800D01*
G01X12600D02*
Y27737D01*
X12128Y26950D01*
G01Y23800D02*
X13072D01*
G01X14883Y24390D02*
X15119Y24062D01*
X15395Y23866D01*
X15749Y23800D01*
X16103Y23931D01*
X16379Y24194D01*
X16576Y24653D01*
X16615Y25178D01*
X16536Y25703D01*
X16339Y26031D01*
X16064Y26293D01*
X15788Y26359D01*
X15513Y26293D01*
X15159Y26031D01*
X15277Y27737D01*
X16339D01*
G01X32464Y7000D02*
Y10937D01*
X33448D01*
X33763Y10740D01*
X33960Y10478D01*
X34038Y9953D01*
X33960Y9428D01*
X33723Y9100D01*
X33448Y8903D01*
X32464D01*
G01X33448D02*
X34038Y7000D01*
G01X36400D02*
Y10937D01*
X35928Y10150D01*
G01Y7000D02*
X36872D01*
G01X38880Y7459D02*
X39155Y7131D01*
X39470Y7000D01*
X39785Y7131D01*
X40061Y7525D01*
X40258Y8115D01*
X40336Y8706D01*
Y9428D01*
X40258Y10018D01*
X40061Y10543D01*
X39825Y10806D01*
X39549Y10937D01*
X39234Y10806D01*
X38998Y10543D01*
X38840Y10150D01*
X38762Y9625D01*
X38840Y9165D01*
X39037Y8706D01*
X39273Y8443D01*
X39549Y8378D01*
X39864Y8509D01*
X40100Y8837D01*
X40336Y9428D01*
G01X15838Y81200D02*
Y85137D01*
X16822D01*
X17137Y84940D01*
X17334Y84678D01*
X17412Y84153D01*
X17334Y83628D01*
X17097Y83300D01*
X16822Y83103D01*
X15838D01*
G01X16822D02*
X17412Y81200D01*
G01X19026Y82840D02*
X19302Y83300D01*
X19538Y83562D01*
X19853Y83693D01*
X20128Y83562D01*
X20325Y83300D01*
X20483Y82906D01*
X20522Y82447D01*
X20483Y82053D01*
X20325Y81659D01*
X20089Y81331D01*
X19813Y81200D01*
X19498Y81331D01*
X19223Y81725D01*
X19065Y82315D01*
X19026Y82972D01*
X19105Y83825D01*
X19223Y84284D01*
X19420Y84743D01*
X19695Y85071D01*
X19971Y85137D01*
X20246Y85006D01*
X20443Y84678D01*
G01X32464Y75600D02*
Y79537D01*
X33448D01*
X33763Y79340D01*
X33960Y79078D01*
X34038Y78553D01*
X33960Y78028D01*
X33723Y77700D01*
X33448Y77503D01*
X32464D01*
G01X33448D02*
X34038Y75600D01*
G01X36400D02*
Y79537D01*
X35928Y78750D01*
G01Y75600D02*
X36872D01*
G01X38801Y78881D02*
X39037Y79274D01*
X39313Y79471D01*
X39628Y79537D01*
X40021Y79406D01*
X40297Y79078D01*
X40376Y78684D01*
X40336Y78290D01*
X40179Y77962D01*
X39392Y77306D01*
X39037Y76847D01*
X38801Y76190D01*
X38722Y75600D01*
X40376D01*
G01X18464Y99400D02*
Y103337D01*
X19448D01*
X19763Y103140D01*
X19960Y102878D01*
X20038Y102353D01*
X19960Y101828D01*
X19723Y101500D01*
X19448Y101303D01*
X18464D01*
G01X19448D02*
X20038Y99400D01*
G01X22400D02*
Y103337D01*
X21928Y102550D01*
G01Y99400D02*
X22872D01*
G01X26021D02*
Y103337D01*
X24565Y100515D01*
X26533D01*
G01X36838Y99400D02*
Y103337D01*
X37822D01*
X38137Y103140D01*
X38334Y102878D01*
X38412Y102353D01*
X38334Y101828D01*
X38097Y101500D01*
X37822Y101303D01*
X36838D01*
G01X37822D02*
X38412Y99400D01*
G01X40774D02*
Y103337D01*
X40302Y102550D01*
G01Y99400D02*
X41246D01*
G01X38491Y140809D02*
X38255Y141006D01*
X37979Y141137D01*
X37664D01*
X37310Y140940D01*
X37035Y140612D01*
X36838Y140218D01*
X36680Y139562D01*
X36641Y138972D01*
X36720Y138381D01*
X36838Y137987D01*
X37074Y137594D01*
X37349Y137331D01*
X37625Y137200D01*
X37901D01*
X38176Y137331D01*
X38412Y137528D01*
X38609Y137790D01*
G01X41246Y137200D02*
Y141137D01*
X39790Y138315D01*
X41758D01*
G01X50664Y7000D02*
Y10937D01*
X51648D01*
X51963Y10740D01*
X52160Y10478D01*
X52238Y9953D01*
X52160Y9428D01*
X51923Y9100D01*
X51648Y8903D01*
X50664D01*
G01X51648D02*
X52238Y7000D01*
G01X54600D02*
Y10937D01*
X54128Y10150D01*
G01Y7000D02*
X55072D01*
G01X57749D02*
X58025Y7066D01*
X58339Y7262D01*
X58536Y7590D01*
X58615Y8050D01*
X58536Y8509D01*
X58300Y8903D01*
X57946Y9100D01*
X57552D01*
X57316Y9231D01*
X57119Y9559D01*
X57040Y10018D01*
X57159Y10478D01*
X57434Y10806D01*
X57749Y10937D01*
X58064Y10806D01*
X58339Y10478D01*
X58458Y10018D01*
X58379Y9559D01*
X58182Y9231D01*
X57946Y9100D01*
X57552D01*
X57198Y8903D01*
X56962Y8509D01*
X56883Y8050D01*
X56962Y7590D01*
X57159Y7262D01*
X57473Y7066D01*
X57749Y7000D01*
G01X60638Y106400D02*
Y110337D01*
X61622D01*
X61937Y110140D01*
X62134Y109878D01*
X62212Y109353D01*
X62134Y108828D01*
X61897Y108500D01*
X61622Y108303D01*
X60638D01*
G01X61622D02*
X62212Y106400D01*
G01X63708Y106990D02*
X63944Y106662D01*
X64220Y106466D01*
X64574Y106400D01*
X64928Y106531D01*
X65204Y106794D01*
X65401Y107253D01*
X65440Y107778D01*
X65361Y108303D01*
X65164Y108631D01*
X64889Y108893D01*
X64613Y108959D01*
X64338Y108893D01*
X63984Y108631D01*
X64102Y110337D01*
X65164D01*
G01X59064Y113400D02*
Y117337D01*
X60048D01*
X60363Y117140D01*
X60560Y116878D01*
X60638Y116353D01*
X60560Y115828D01*
X60323Y115500D01*
X60048Y115303D01*
X59064D01*
G01X60048D02*
X60638Y113400D01*
G01X63000D02*
Y117337D01*
X62528Y116550D01*
G01Y113400D02*
X63472D01*
G01X65401Y115040D02*
X65677Y115500D01*
X65913Y115762D01*
X66228Y115893D01*
X66503Y115762D01*
X66700Y115500D01*
X66858Y115106D01*
X66897Y114647D01*
X66858Y114253D01*
X66700Y113859D01*
X66464Y113531D01*
X66188Y113400D01*
X65873Y113531D01*
X65598Y113925D01*
X65440Y114515D01*
X65401Y115172D01*
X65480Y116025D01*
X65598Y116484D01*
X65795Y116943D01*
X66070Y117271D01*
X66346Y117337D01*
X66621Y117206D01*
X66818Y116878D01*
G01X60891Y124009D02*
X60655Y124206D01*
X60379Y124337D01*
X60064D01*
X59710Y124140D01*
X59435Y123812D01*
X59238Y123418D01*
X59080Y122762D01*
X59041Y122172D01*
X59120Y121581D01*
X59238Y121187D01*
X59474Y120794D01*
X59749Y120531D01*
X60025Y120400D01*
X60301D01*
X60576Y120531D01*
X60812Y120728D01*
X61009Y120990D01*
G01X63174Y120400D02*
Y124337D01*
X62702Y123550D01*
G01Y120400D02*
X63646D01*
G01X69038Y130200D02*
Y134137D01*
X70022D01*
X70337Y133940D01*
X70534Y133678D01*
X70612Y133153D01*
X70534Y132628D01*
X70297Y132300D01*
X70022Y132103D01*
X69038D01*
G01X70022D02*
X70612Y130200D01*
G01X73446D02*
Y134137D01*
X71990Y131315D01*
X73958D01*
G01X60891Y132409D02*
X60655Y132606D01*
X60379Y132737D01*
X60064D01*
X59710Y132540D01*
X59435Y132212D01*
X59238Y131818D01*
X59080Y131162D01*
X59041Y130572D01*
X59120Y129981D01*
X59238Y129587D01*
X59474Y129194D01*
X59749Y128931D01*
X60025Y128800D01*
X60301D01*
X60576Y128931D01*
X60812Y129128D01*
X61009Y129390D01*
G01X62308Y129587D02*
X62544Y129128D01*
X62859Y128866D01*
X63213Y128800D01*
X63528Y128866D01*
X63843Y129194D01*
X64040Y129587D01*
X64079Y129981D01*
X64001Y130440D01*
X63725Y130768D01*
X63450Y130900D01*
X63095D01*
G01X63450D02*
X63686Y131097D01*
X63883Y131425D01*
X63961Y131818D01*
X63883Y132212D01*
X63686Y132540D01*
X63331Y132737D01*
X62977Y132671D01*
X62623Y132409D01*
G01X79800Y24936D02*
X83737D01*
Y23952D01*
X83540Y23637D01*
X83278Y23440D01*
X82753Y23362D01*
X82228Y23440D01*
X81900Y23677D01*
X81703Y23952D01*
Y24936D01*
G01Y23952D02*
X79800Y23362D01*
G01Y21000D02*
X83737D01*
X82950Y21472D01*
G01X79800D02*
Y20528D01*
G01X83737Y17851D02*
X83606Y18166D01*
X83278Y18402D01*
X82884Y18560D01*
X82359Y18678D01*
X81768Y18717D01*
X81178Y18678D01*
X80653Y18560D01*
X80259Y18402D01*
X79931Y18166D01*
X79800Y17851D01*
X79931Y17536D01*
X80259Y17300D01*
X80653Y17142D01*
X81178Y17024D01*
X81768Y16985D01*
X82359Y17024D01*
X82884Y17142D01*
X83278Y17300D01*
X83606Y17536D01*
X83737Y17851D01*
G01X100091Y48409D02*
X99855Y48606D01*
X99579Y48737D01*
X99264D01*
X98910Y48540D01*
X98635Y48212D01*
X98438Y47818D01*
X98280Y47162D01*
X98241Y46572D01*
X98320Y45981D01*
X98438Y45587D01*
X98674Y45194D01*
X98949Y44931D01*
X99225Y44800D01*
X99501D01*
X99776Y44931D01*
X100012Y45128D01*
X100209Y45390D01*
G01X101626Y48081D02*
X101862Y48474D01*
X102138Y48671D01*
X102453Y48737D01*
X102846Y48606D01*
X103122Y48278D01*
X103201Y47884D01*
X103161Y47490D01*
X103004Y47162D01*
X102217Y46506D01*
X101862Y46047D01*
X101626Y45390D01*
X101547Y44800D01*
X103201D01*
G01X87064Y74200D02*
Y78137D01*
X88048D01*
X88363Y77940D01*
X88560Y77678D01*
X88638Y77153D01*
X88560Y76628D01*
X88323Y76300D01*
X88048Y76103D01*
X87064D01*
G01X88048D02*
X88638Y74200D01*
G01X91000D02*
Y78137D01*
X90528Y77350D01*
G01Y74200D02*
X91472D01*
G01X93283Y74987D02*
X93519Y74528D01*
X93834Y74266D01*
X94188Y74200D01*
X94503Y74266D01*
X94818Y74594D01*
X95015Y74987D01*
X95054Y75381D01*
X94976Y75840D01*
X94700Y76168D01*
X94425Y76300D01*
X94070D01*
G01X94425D02*
X94661Y76497D01*
X94858Y76825D01*
X94936Y77218D01*
X94858Y77612D01*
X94661Y77940D01*
X94306Y78137D01*
X93952Y78071D01*
X93598Y77809D01*
G01X113838Y29400D02*
Y33337D01*
X114822D01*
X115137Y33140D01*
X115334Y32878D01*
X115412Y32353D01*
X115334Y31828D01*
X115097Y31500D01*
X114822Y31303D01*
X113838D01*
G01X114822D02*
X115412Y29400D01*
G01X117774D02*
X118050Y29466D01*
X118364Y29662D01*
X118561Y29990D01*
X118640Y30450D01*
X118561Y30909D01*
X118325Y31303D01*
X117971Y31500D01*
X117577D01*
X117341Y31631D01*
X117144Y31959D01*
X117065Y32418D01*
X117184Y32878D01*
X117459Y33206D01*
X117774Y33337D01*
X118089Y33206D01*
X118364Y32878D01*
X118483Y32418D01*
X118404Y31959D01*
X118207Y31631D01*
X117971Y31500D01*
X117577D01*
X117223Y31303D01*
X116987Y30909D01*
X116908Y30450D01*
X116987Y29990D01*
X117184Y29662D01*
X117498Y29466D01*
X117774Y29400D01*
G01X126264Y42000D02*
Y45937D01*
X127248D01*
X127563Y45740D01*
X127760Y45478D01*
X127838Y44953D01*
X127760Y44428D01*
X127523Y44100D01*
X127248Y43903D01*
X126264D01*
G01X127248D02*
X127838Y42000D01*
G01X130200D02*
Y45937D01*
X129728Y45150D01*
G01Y42000D02*
X130672D01*
G01X133270D02*
X133349Y42853D01*
X133467Y43575D01*
X133625Y44231D01*
X133821Y44953D01*
X134136Y45937D01*
X132562D01*
G01X119000Y113136D02*
X122937D01*
Y112152D01*
X122740Y111837D01*
X122478Y111640D01*
X121953Y111562D01*
X121428Y111640D01*
X121100Y111877D01*
X120903Y112152D01*
Y113136D01*
G01Y112152D02*
X119000Y111562D01*
G01X122281Y109948D02*
X122674Y109712D01*
X122871Y109436D01*
X122937Y109121D01*
X122806Y108728D01*
X122478Y108452D01*
X122084Y108373D01*
X121690Y108413D01*
X121362Y108570D01*
X120706Y109357D01*
X120247Y109712D01*
X119590Y109948D01*
X119000Y110027D01*
Y108373D01*
G01X122937Y106051D02*
X122806Y106366D01*
X122478Y106602D01*
X122084Y106760D01*
X121559Y106878D01*
X120968Y106917D01*
X120378Y106878D01*
X119853Y106760D01*
X119459Y106602D01*
X119131Y106366D01*
X119000Y106051D01*
X119131Y105736D01*
X119459Y105500D01*
X119853Y105342D01*
X120378Y105224D01*
X120968Y105185D01*
X121559Y105224D01*
X122084Y105342D01*
X122478Y105500D01*
X122806Y105736D01*
X122937Y106051D01*
G01X106664Y142800D02*
Y146737D01*
X107648D01*
X107963Y146540D01*
X108160Y146278D01*
X108238Y145753D01*
X108160Y145228D01*
X107923Y144900D01*
X107648Y144703D01*
X106664D01*
G01X107648D02*
X108238Y142800D01*
G01X110600D02*
Y146737D01*
X110128Y145950D01*
G01Y142800D02*
X111072D01*
G01X113749D02*
Y146737D01*
X113277Y145950D01*
G01Y142800D02*
X114221D01*
G54D14*
G01X16165Y36400D02*
X11835D01*
G01X10435Y95200D02*
X14765D01*
G01X37165Y19600D02*
X32835D01*
G01X18200Y73435D02*
Y77765D01*
G01X32965Y88200D02*
X28635D01*
G01X38565Y112000D02*
X34235D01*
G01X55365Y19600D02*
X51035D01*
G01X72035Y23800D02*
X76365D01*
G01X67278Y88200D02*
Y79342D01*
G01X62750Y83672D02*
X71806D01*
G01X67278Y89578D02*
G03X61372Y83672I0J-5906D01*
G03X67475Y77767I5909J1D01*
G03X73183Y83672I-194J5899D01*
G03X67278Y89578I-5905J1D01*
G01X57435Y78161D02*
Y73830D01*
X77120D01*
Y75011D01*
G01X57435Y89184D02*
Y93515D01*
X77120D01*
Y92334D01*
G01X51800Y101435D02*
Y105765D01*
G01X50400Y111235D02*
Y115565D01*
G01X71400Y136435D02*
Y140765D01*
G01X95965Y65800D02*
X91635D01*
G01X77120Y84657D02*
Y82688D01*
G01X102080Y87543D02*
Y89512D01*
G01X121765Y83016D02*
Y78685D01*
X102080D01*
Y79866D01*
G01X121765Y94039D02*
Y98370D01*
X102080D01*
Y97189D01*
G01X116200Y39965D02*
Y35635D01*
G01X111922Y84000D02*
Y92858D01*
G01X116450Y88528D02*
X107394D01*
G01X111922Y82622D02*
G03X117828Y88528I0J5906D01*
G03X111725Y94433I-5909J-1D01*
G03X106017Y88528I194J-5899D01*
G03X111922Y82622I5905J-1D01*
G01X111235Y114800D02*
X115565D01*
G01X113400Y135035D02*
Y139365D01*
G01X135800Y38565D02*
Y34235D01*
M02*
